<svg xmlns="http://www.w3.org/2000/svg" viewBox="0 0 16.94 31.31"><defs><style>.cls-1{fill:#fafafa;}</style></defs><g id="Layer_2" data-name="Layer 2"><g id="Layer_1-2" data-name="Layer 1"><path class="cls-1" d="M7.68,22.82V14.88a4.48,4.48,0,0,1,.65-.12,6.74,6.74,0,0,1,.77,0,9.25,9.25,0,0,1,3,.47,6.8,6.8,0,0,1,2.46,1.5,7.42,7.42,0,0,1,1.79,2.6,8.8,8.8,0,0,1,.64,3.47,8.61,8.61,0,0,1-.64,3.32,8.23,8.23,0,0,1-1.76,2.72,8.63,8.63,0,0,1-2.69,1.84,8.36,8.36,0,0,1-3.38.67,8.44,8.44,0,0,1-3.39-.67A8.7,8.7,0,0,1,2.4,28.8,8.42,8.42,0,0,1,.63,26.08a9.28,9.28,0,0,1,.05-6.85,7.89,7.89,0,0,1,1.88-2.66l2.06,2.11a5.55,5.55,0,0,0-1.28,1.77,5.63,5.63,0,0,0-.44,2.33,5.49,5.49,0,0,0,.4,2.1,5.1,5.1,0,0,0,1.12,1.75,5.32,5.32,0,0,0,1.75,1.19,5.86,5.86,0,0,0,2.3.44,5.89,5.89,0,0,0,2.3-.44,5.45,5.45,0,0,0,1.75-1.2,5.23,5.23,0,0,0,1.12-1.76,5.57,5.57,0,0,0,.4-2.13,5.8,5.8,0,0,0-.37-2.18,4.94,4.94,0,0,0-1-1.53,3.63,3.63,0,0,0-1-.78,5.71,5.71,0,0,0-1.39-.51v5.09Z"/><path class="cls-1" d="M.36,12.18V6.27A6.09,6.09,0,0,1,.75,4.05,5.14,5.14,0,0,1,1.81,2.34,4.54,4.54,0,0,1,3.43,1.25,5.31,5.31,0,0,1,5.48.86,4.32,4.32,0,0,1,7,1.13a4.63,4.63,0,0,1,1.29.75A6,6,0,0,1,9.32,3,5.87,5.87,0,0,1,10,4.33l.16,0L16.39,0h.18V3.51L10.48,7.7V9.12h6.09v3.06ZM7.68,6.29A2.33,2.33,0,0,0,7,4.59a2.11,2.11,0,0,0-1.61-.67,2.39,2.39,0,0,0-.83.15,2,2,0,0,0-.73.44,2.17,2.17,0,0,0-.51.73,2.67,2.67,0,0,0-.19,1V9.12H7.68Z"/></g></g></svg>