<svg xmlns="http://www.w3.org/2000/svg" viewBox="0 0 186.07 179.07"><defs><style>.cls-1{fill:#fff;}</style></defs><g id="Layer_2" data-name="Layer 2"><g id="Layer_1-2" data-name="Layer 1"><path class="cls-1" d="M.05,82.88c0-6.14.15-12.28,0-18.41A8.08,8.08,0,0,1,8.5,56c1.65.11,3.31,0,5,0a1.38,1.38,0,0,0,1.58-1.08,79.92,79.92,0,0,1,13.63-24.2A82.06,82.06,0,0,1,77.23,1.54,77.58,77.58,0,0,1,94.22,0a83,83,0,0,1,76.83,55,1.23,1.23,0,0,0,1.38,1c1.95,0,3.9,0,5.84,0A7.8,7.8,0,0,1,186,63.7q.06,19.18,0,38.38a7.79,7.79,0,0,1-7.73,7.66c-2,0-4,0-5.93,0a1.17,1.17,0,0,0-1.32.94,81.18,81.18,0,0,1-16,27.08,82.1,82.1,0,0,1-44.46,26.06,76.93,76.93,0,0,1-18.08,1.88c-21-.33-39.35-7.37-55-21.38a81.28,81.28,0,0,1-22.44-33.39,1.47,1.47,0,0,0-1.67-1.2c-1.92.07-3.84,0-5.76,0a7.74,7.74,0,0,1-7.59-7.58c0-6.43,0-12.85,0-19.28ZM93,58.78H8.46c-3.55,0-5.6,2-5.6,5.55V101.4c0,3.47,2.07,5.54,5.52,5.55H177.69c3.39,0,5.55-2.1,5.55-5.47q0-18.62,0-37.25a6.45,6.45,0,0,0-.42-2.29,5,5,0,0,0-5-3.15H93m67.48-2.87C152,32.8,124.73,6.82,85.86,10.5c-17.28,1.64-32.07,8.83-44.38,21.07a71.77,71.77,0,0,0-16,24.31c.52,0,.83.09,1.14.09,7.12,0,14.25,0,21.37,0a1.63,1.63,0,0,0,1.56-.85,49.68,49.68,0,0,1,11.6-12.8c12-9.22,25.47-12.77,40.34-10.32s26.62,10.38,35,23.06a1.8,1.8,0,0,0,1.7.91c7.06,0,14.13,0,21.2,0,.33,0,.67,0,1.11-.06M25.59,109.82c8.44,23.07,35.64,49,74.44,45.42,17.32-1.6,32.16-8.79,44.5-21a71.12,71.12,0,0,0,16.06-24.39c-.6,0-1-.07-1.39-.07-6.95,0-13.9,0-20.85,0a2.07,2.07,0,0,0-2,1.12,51.29,51.29,0,0,1-51.57,22.9c-15-2.51-26.71-10.32-35.11-23a1.94,1.94,0,0,0-1.83-1c-7,0-14,0-21,0-.37,0-.74,0-1.21.07M130.82,55.9C124.39,46,109,34.63,88.74,36.49A45.79,45.79,0,0,0,61.89,48.24a40.79,40.79,0,0,0-6.77,7.66ZM55.18,109.82A46.14,46.14,0,0,0,99.93,128.9c12.91-2,23.14-8.42,30.89-18.8,0-.09-.08-.19-.13-.28Zm-38.1-54c2.08.65,2.91.27,3.65-1.59A75.86,75.86,0,0,1,44,22.52C62.35,7.93,83.2,2.4,106.27,6.31c21.57,3.66,38.5,14.91,51,32.81a74.13,74.13,0,0,1,8.37,15.94c.13.32.39.8.63.83a26.44,26.44,0,0,0,2.86,0,79.25,79.25,0,0,0-19.52-30.61C134.43,10.54,116.14,2.66,94.93,2.16,54.94,1.23,26,28.6,17.08,55.79m152,54c-.74,0-1.37,0-2,0a1.23,1.23,0,0,0-1.42,1,77.81,77.81,0,0,1-67.95,49.78A74.13,74.13,0,0,1,77.05,159c-20.22-4.43-36.24-15.19-48.13-32.11a74.74,74.74,0,0,1-8.52-16.16c-.12-.31-.34-.8-.54-.82-.93-.09-1.86,0-2.85,0,9.12,27.3,37.4,54.16,76.82,53.76,39.67-.41,66.71-28,75.22-53.83"/><path class="cls-1" d="M14.23,129.93c-.47-.76-.91-1.54-1.43-2.28-.06-.09-.49,0-.68.07-.84.46-1.67.94-2.49,1.45-.48.31-.76.19-1-.28s-.29-.75.23-1q3.63-2.09,7.22-4.22c.52-.31.76-.15,1,.3s.22.79-.26,1.06c-.72.39-1.4.83-2.12,1.22-.46.25-.48.54-.25,1,1.18,2.29,1.17,2.29,3.41,1,.2-.11.41-.22.6-.35.46-.32.75-.23,1.05.26s.22.81-.29,1.11c-2.39,1.38-4.78,2.77-7.15,4.18-.51.3-.76.15-1-.31s-.26-.77.25-1.05c.84-.46,1.65-1,2.49-1.44a3.57,3.57,0,0,1,.76-.25Z"/><path class="cls-1" d="M40,162.92c-1.38-.67-1.45-.72-1-1.95.33-.82.22-1.37-.58-1.77a2.9,2.9,0,0,1-.36-.25c-1.36-1-1.38-1-2.68,0-.88.67-1.21-.09-1.78-.53a7.29,7.29,0,0,1,.6-.56c2.27-1.7,4.56-3.39,6.82-5.11a1,1,0,0,1,1.38,0,1,1,0,0,1,.43,1.31c-.86,2.67-1.68,5.36-2.53,8-.08.27-.2.53-.33.85m1-8-.2-.15L38,156.92l1.89,1.32c.42-1.24.77-2.29,1.12-3.34"/><path class="cls-1" d="M158.79,147.11a7.48,7.48,0,0,1-.57,1.16,5.46,5.46,0,0,1-1.07,1.13c-.57.46-.47.83,0,1.27s1,1.05,1.53,1.56.22.69-.12,1-.58.56-1,.11c-2-2.1-4-4.18-5.9-6.3a.8.8,0,0,1,0-.78,30.44,30.44,0,0,1,2.36-2.19,2.17,2.17,0,0,1,2.82-.19,3.91,3.91,0,0,1,1.93,3.22m-3.12,2c.37-.53.63-1,1-1.4a1.29,1.29,0,0,0-.26-2.08,1.54,1.54,0,0,0-1.27-.17,7.16,7.16,0,0,0-1.43,1.33s.07.28.16.37c.51.56,1,1.09,1.84,1.95"/><path class="cls-1" d="M84.94,175.34c1.42.39,1.54.7.79,1.86a3.2,3.2,0,0,1-5.45-.1,7.19,7.19,0,0,1,.89-7.53,3.2,3.2,0,0,1,3.28-.87,2.93,2.93,0,0,1,2.2,2.25c.09.35.3.79-.3.88-.43.07-1,.45-1.21-.32a1.62,1.62,0,0,0-1.67-1.27,1.76,1.76,0,0,0-1.78,1.41,15.61,15.61,0,0,0-.45,3.33,1.91,1.91,0,0,0,1.48,2c.77.17,1.38-.22,2-1.25.07-.13.15-.25.25-.41"/><path class="cls-1" d="M123.24,166.91c-.09,0-.16-.07-.2-.1-.66-.66-1.37-1.1-2.32-.59a2,2,0,0,0-.89,2.43,14.78,14.78,0,0,0,1.26,3.12,1.63,1.63,0,0,0,1.94.83,1.67,1.67,0,0,0,1.27-1.76c0-.51.1-.84.72-.82s.87.26.87.91a3,3,0,0,1-1.55,2.91,3.14,3.14,0,0,1-3.53-.16,7.21,7.21,0,0,1-2.42-7,3.27,3.27,0,0,1,5-1.78c1.17.91,1.14,1.2-.19,2"/><path class="cls-1" d="M30.75,156.12c-.54-.43-1.24-.61-.67-1.45a4.51,4.51,0,0,0-.46-.09c-1.7-.08-2.6-1.21-2-2.81a7.91,7.91,0,0,1,1.82-2.69c1.71-1.69,3.49-1.21,4.32,1.19l1.44-1.67c.78-.94.91-.93,1.76.21l-6.24,7.31m2-5.31a1,1,0,0,0-1.2-1.13,3.53,3.53,0,0,0-2.47,2.91,1,1,0,0,0,1.24,1,3.71,3.71,0,0,0,2.43-2.79"/><path class="cls-1" d="M62.57,166.75c-.86,1.09-1.68,2.13-2.51,3.16-1,1.26-2,2.55-3.1,3.76a2,2,0,0,1-2.46.43c-.47-.24-.51-.55-.36-1s.35-.49.78-.4a1.34,1.34,0,0,0,1.69-1.36q.26-3,.52-6c0-.25.07-.5.11-.74,1.26.13,1.36.24,1.28,1.38-.05.67-.14,1.33-.2,2s-.13,1.24-.2,1.86l.22.09,2.27-3c.72-.95.76-.95,2-.17"/><path class="cls-1" d="M15.06,139.34c-.24-.6-.44-1.1-.63-1.6l.2-.12c-.21-.09-.42-.17-.62-.27a1.88,1.88,0,0,1-1.11-2.68,2.14,2.14,0,0,1,3-.89c.42.26.76.64,1.18.89a1.8,1.8,0,0,0,1.05.32c.16,0,.43-.64.34-.83-.18-.37-.56-.83-.91-.89-.52-.07-.84-.24-.91-.71,0-.21.24-.64.36-.64a3.3,3.3,0,0,1,1.7.31A4.62,4.62,0,0,1,20,133.94a1.52,1.52,0,0,1-.57,1.93c-.92.71-1.87,1.38-2.79,2.08-.48.37-.92.8-1.6,1.39m1.84-3.45a13.6,13.6,0,0,0-1.25-.92.87.87,0,0,0-1.35.47c-.26.59.06,1,.62,1.23.78.29,1.32-.16,2-.78"/><path class="cls-1" d="M163.25,148.12a4.65,4.65,0,0,1-4.19-3.6,2.72,2.72,0,0,1,3.22-3.08,4.37,4.37,0,0,1,3.57,3.2,2.7,2.7,0,0,1-2.6,3.48m-.14-1.54a1.24,1.24,0,0,0,1.2-1.9,3.11,3.11,0,0,0-2.05-1.74,1.26,1.26,0,0,0-1.64,1.61,3.22,3.22,0,0,0,2.49,2"/><path class="cls-1" d="M147,154.07c2.44,0,4.65,3.27,3.66,5.5a2.75,2.75,0,0,1-3.68,1.31,4.65,4.65,0,0,1-2.61-4.45,2.82,2.82,0,0,1,2.63-2.36m.11,1.56a1.22,1.22,0,0,0-1.28,1.48,3.31,3.31,0,0,0,1.75,2.37,1.23,1.23,0,0,0,1.79-.67,2.88,2.88,0,0,0-2.26-3.18"/><path class="cls-1" d="M22.54,148.47,21.83,147l.18-.12-.49-.12a2,2,0,0,1-1.61-1.64,1.93,1.93,0,0,1,.9-1.94,1.93,1.93,0,0,1,2.2-.19c.41.21.76.55,1.18.73a2.62,2.62,0,0,0,1.16.23,1,1,0,0,0,.25-.79,4,4,0,0,0-1.06-.89c-.25-.17-.65-.18-.84-.39-.39-.42-.29-.89.31-.91a3.36,3.36,0,0,1,1.86.35c1.75,1.22,1.79,2.52.22,4-1.1,1-2.23,2-3.55,3.23m1.6-3.53a14,14,0,0,0-1.42-.82.8.8,0,0,0-1.2.59,1.28,1.28,0,0,0,.52,1.08c.86.49,1.43-.14,2.1-.85"/><path class="cls-1" d="M50.94,169.37l-1.19-1a1.63,1.63,0,0,0,.11-.17h-1a1.83,1.83,0,0,1-1.9-1.85,2.1,2.1,0,0,1,1.85-2.17c.62,0,1.26.17,1.89.2a1.89,1.89,0,0,0,1.07-.2.92.92,0,0,0-.08-.9,1.6,1.6,0,0,0-1.22-.36c-.76.34-1.05-.07-1.41-.53.76-1.11,1.75-1.29,3.06-.59s1.68,1.48,1.16,2.68c-.7,1.59-1.48,3.14-2.32,4.9m.11-3.8a10.18,10.18,0,0,0-1.68-.23.78.78,0,0,0-.81,1,1.3,1.3,0,0,0,.89.8c.93.12,1.26-.61,1.6-1.55"/><path class="cls-1" d="M132.33,169.38a2.58,2.58,0,0,1-1.68,2.1,2.76,2.76,0,0,1-3.18-.72,4.77,4.77,0,0,1-1.41-3.63,2.61,2.61,0,0,1,1.52-2.36,2.69,2.69,0,0,1,2.81.2,5,5,0,0,1,1.94,4.41m-5.06-2a14.08,14.08,0,0,0,1.4,2.39,1.55,1.55,0,0,0,1.46.26,1.59,1.59,0,0,0,.71-1.31,6,6,0,0,0-1.1-2.3,1.48,1.48,0,0,0-1.37-.31c-.42.16-.67.75-1.1,1.27"/><path class="cls-1" d="M113.07,177.05l-1.91-.19s-.27.27-.52.46a1.88,1.88,0,0,1-2.71-.32,2.23,2.23,0,0,1,.36-3c.45-.31,1-.47,1.45-.78a2,2,0,0,0,.72-.84c.05-.12-.36-.62-.55-.61a3.41,3.41,0,0,0-1.25.38c-.33.15-.59.48-.93.58s-.72-.17-.53-.6.45-1.17.85-1.32a7.32,7.32,0,0,1,2.67-.41c.74,0,1,.79,1.16,1.47.25,1.13.44,2.27.69,3.41.1.5.27,1,.5,1.81m-2.34-3c-1.41.37-2,1-1.71,1.68a.86.86,0,0,0,1.18.57c.78-.27,1-1.14.53-2.25"/><path class="cls-1" d="M44.08,165.5c.74-1.15,1.49-2.26,2.18-3.4.36-.6.9-1.26.11-1.93-.57-.47-1.38-.19-2,.74-.77,1.08-1.48,2.2-2.26,3.38l-1.23-.78L43,160.25c.41-.63.79-1.29,1.25-1.89.19-.25.66-.58.79-.51a3.53,3.53,0,0,1,.79.91l-.18.2c.07,0,.16.08.23.06a2,2,0,0,1,2.3.82,2.05,2.05,0,0,1-.19,2.37c-.67,1.08-1.37,2.15-2.06,3.22s-.74,1.07-1.8.07"/><path class="cls-1" d="M170.82,140.15c-.66,1.32-.68,1.33-1.74.57-1.35-1-2.71-1.91-4-2.9-.24-.18-.56-.68-.48-.8a3.46,3.46,0,0,1,.94-.78,2.11,2.11,0,0,0,.23.19c0-.22,0-.43,0-.65a1.84,1.84,0,0,1,2.77-1.8c1.46.83,2.79,1.87,4.18,2.83.46.32.18.63,0,1s-.51.49-.92.19c-.84-.63-1.69-1.22-2.55-1.82a2.36,2.36,0,0,0-.88-.54c-.44-.07-1.14-.1-1.29.14a1.61,1.61,0,0,0,0,1.39,3.57,3.57,0,0,0,1.12,1.06c.88.66,1.78,1.29,2.7,2"/><path class="cls-1" d="M133.14,163a2.63,2.63,0,0,1,.12-.32c.71-1.57,2.48-1.82,3.38-.37s1.69,3.17,2.5,4.74c-1,.95-1.22.92-1.77-.18s-1-2-1.54-3c-.3-.55-.7-1.11-1.44-.75a1.18,1.18,0,0,0-.55,1.65c.49,1.15,1,2.27,1.58,3.39.23.47.36.82-.27,1.12s-.82.06-1.06-.43c-.77-1.6-1.58-3.18-2.36-4.77-.17-.35-.49-.8.07-1a4.09,4.09,0,0,1,1.34,0"/><path class="cls-1" d="M64.23,174.62a2.91,2.91,0,0,1-2.9-2.05,2.47,2.47,0,0,1,.22-1c.42.13,1-.17,1.18.58a1.18,1.18,0,0,0,1.3,1,1.11,1.11,0,0,0,.81-.46c.09-.14-.14-.58-.34-.77-.49-.45-1.08-.79-1.56-1.25a2,2,0,0,1-.33-2.55,2,2,0,0,1,2.22-1c1,.22,2,.51,2.28,1.62a2.65,2.65,0,0,1-.07,1,7.07,7.07,0,0,1-1.2-.41c-.43-.23-.78-.62-1.22-.83-.17-.08-.5.16-.75.25.09.25.11.58.29.74.47.43,1,.76,1.51,1.17a1.92,1.92,0,0,1,.7,2.4,2.27,2.27,0,0,1-2.14,1.51"/><path class="cls-1" d="M75.84,171.94c-.63.1-1.17.24-1.52-.48a1.1,1.1,0,0,0-.77-.49,3.86,3.86,0,0,0-1.07.25,3,3,0,0,0,.53.88,16.45,16.45,0,0,0,1.4.87,1.94,1.94,0,0,1,1,2.22,2.26,2.26,0,0,1-2,1.8,2.89,2.89,0,0,1-3.1-1.73c-.08-.28,0-.87.2-.91.39-.11.93-.25,1.15.39a1.27,1.27,0,0,0,1.49.92,1,1,0,0,0,.67-.55c.07-.17-.15-.55-.34-.69-.53-.4-1.15-.69-1.68-1.09a1.87,1.87,0,0,1-.69-2.39,2,2,0,0,1,2.1-1.35c1.64,0,2.58.84,2.65,2.35"/><path class="cls-1" d="M21.77,138.77l-1.57-2.12,1.13-.93c.91,1.17,1.81,2.27,2.63,3.41.31.42-.34,1.07-1.14,1.12-1.19.08-2.38.13-3.57.19l-1.12.06c.57.75,1,1.38,1.52,2s.11.75-.25,1-.66.41-1,0c-.66-.88-1.38-1.72-2-2.61-.23-.3-.56-.91-.49-1a2.79,2.79,0,0,1,1.36-.79c1.15-.16,2.32-.15,3.48-.21l1.07-.1"/><path class="cls-1" d="M106.28,172.91c-.59.33-1.06.72-1.66,0a1,1,0,0,0-1.8.42,3.66,3.66,0,0,0,.44,3.17,1,1,0,0,0,1.9-.27c.21-.62.55-.78,1.1-.59s.42.74.28,1.17a2.51,2.51,0,0,1-4.29.85,5,5,0,0,1-.77-4.94,2.47,2.47,0,0,1,2.54-1.61,2.34,2.34,0,0,1,2.26,1.84"/><path class="cls-1" d="M166.94,129.53c1-.22,1.55,1.7,2.61.23.48.32,1.35.29.83,1.3-.06.12.14.47.31.59a26.66,26.66,0,0,0,2.41,1.55,1,1,0,0,0,1-.06.59.59,0,0,1,1,0,1,1,0,0,1,.22.86,1.39,1.39,0,0,1-2.18.88c-1-.56-1.95-1.25-3-1.82A1.8,1.8,0,0,0,169,133a1,1,0,0,1-1.11-.87.84.84,0,0,0-.31-.6c-.86-.46-.78-1.18-.68-2"/><path class="cls-1" d="M96.24,169.5c.05.39.11.69.13,1,0,.61-.16,1.29.83,1.4.4,0,.34,1.19-.1,1.27-.79.15-.67.65-.64,1.17s.06,1.22.09,1.83-.16,1.34.86,1.38c.12,0,.31.47.31.73a.78.78,0,0,1-.34.6,1.45,1.45,0,0,1-2.2-1.16c-.11-1.12-.09-2.26-.21-3.38,0-.4-.4-.75-.48-1.15a3.84,3.84,0,0,1,0-1.31c0-.22.34-.43.33-.62-.08-1,.58-1.35,1.41-1.75"/><path class="cls-1" d="M137.24,157.49c.27.42.48.73.67,1,.28.46.46,1.06,1.23.61.09,0,.48.25.59.45s.12.65,0,.73c-.51.36-.37.7-.12,1.11.41.67.81,1.35,1.18,2s.71,1,1.44.43c.3.47,1,.75.41,1.41a1.47,1.47,0,0,1-2.09.31,6.47,6.47,0,0,1-1-1.32c-.45-.71-.83-1.47-1.3-2.16a1.39,1.39,0,0,0-.78-.47,1,1,0,0,1-.66-1.26.88.88,0,0,0,0-.69c-.56-.79-.17-1.41.38-2.23"/><path class="cls-1" d="M147.16,150.19c.9-1,1-1,1.75-.05,1.64,2.07,3.25,4.16,4.91,6.21.37.47.29.72-.14,1.06s-.69.33-1-.09c-1.75-2.24-3.51-4.47-5.26-6.7a3.79,3.79,0,0,1-.24-.43"/><path class="cls-1" d="M114.64,176.44a1.48,1.48,0,0,1-.35-.52c-.66-2.77-1.28-5.55-1.93-8.31-.13-.54.16-.67.56-.78s.79,0,.9.51c.19.88.4,1.75.6,2.63.41,1.78.83,3.56,1.23,5.34.18.8-.07,1.12-1,1.13"/><path class="cls-1" d="M53.6,170.49c-.87,0-1.23-.53-.94-1.2L56,161.9c.21-.46.4-.79,1-.52s.54.67.32,1.17c-1.1,2.43-2.18,4.86-3.28,7.29a4.3,4.3,0,0,1-.43.65"/><path class="cls-1" d="M23.77,149.35l5-4.71c.55.4,1.21.64.61,1.49.84,0,1.7,0,1.75,1,0,.3-.64.65-1,1C28.93,147,28.68,147,27.48,148c-.67.56-1.29,1.17-1.93,1.76-.92.84-1,.83-1.78-.36"/><path class="cls-1" d="M139.94,158.3l1.8-.39a1,1,0,0,1,.18-.56,2.3,2.3,0,0,1,1-.61c.12,0,.4.45.55.74s0,.63-.42.84c-.67.35-.56,1-.27,1.52.56,1,1.18,2,1.8,3.07.26.42.5.74-.11,1.13s-.85.16-1.16-.34c-1.06-1.72-2.16-3.42-3.41-5.4"/><path class="cls-1" d="M89.42,172.26c.33-.36.91-.94,1.59-.33.25.22,0,.94,0,1.44-1.48-.06-1.73.1-1.91,1.43-.13,1-.15,2.08-.2,3.12,0,.55-.12,1-.83.92s-.62-.58-.61-1c0-1.72.09-3.43.19-5.14,0-.29.28-.75.5-.8s.68.19,1.23.38"/><path class="cls-1" d="M162.62,139.41c.65-1.26.68-1.27,1.69-.49l4.53,3.59c-.55,1.29-.71,1.33-1.73.52l-3.81-3c-.25-.2-.47-.42-.68-.61"/><path class="cls-1" d="M68.33,175.74c-.87-.13-1.18-.38-1-1.09.53-1.75,1-3.52,1.47-5.27.14-.51.36-.73.94-.55s.63.46.49,1c-.51,1.78-1,3.57-1.5,5.35a1.77,1.77,0,0,1-.43.59"/><path class="cls-1" d="M100.23,177.76a.68.68,0,0,1,0,.42,1.4,1.4,0,0,1-.62.61c-.39.12-.73,0-.77-.55q-.22-2.85-.49-5.71c-.06-.62.34-.7.79-.77s.7.26.73.71c.13,1.7.25,3.4.38,5.29"/><path class="cls-1" d="M93.42,175.5c0,.92,0,1.85,0,2.77,0,.58-.26.74-.8.74s-.66-.32-.64-.78c.07-1.85.13-3.7.19-5.55,0-.45.1-.81.68-.78s.77.27.75.82c0,.93,0,1.85,0,2.78Z"/><path class="cls-1" d="M160.44,137.63l.82-1.06,1.22.93c-.68,1.34-.93,1.36-2,.13"/><path class="cls-1" d="M98,170c.09-.74.35-.95.91-.95.74,0,.73.52.77,1,0,.67-.52.7-.89.64s-.53-.45-.79-.7"/><path class="cls-1" d="M70,167.82c-.08-.12-.44-.41-.44-.7s0-1.08.77-1c.43.08.93.19.74.81-.12.38,0,1-1.07.85"/><path class="cls-1" d="M92.23,170.1c-.08-.63.16-.9.76-.88s.78.16.73.7-.09.93-.75.91-.85-.18-.74-.73"/><path class="cls-1" d="M9.56,83.56V66.39c0-1.31,0-1.32,1.31-1.32,2.06,0,4.13,0,6.19,0,.77,0,1,.25,1,1,0,4.1,0,8.19,0,12.29,0,1.21,0,1.22,1.21,1.22,3.14,0,6.28,0,9.42,0,.84,0,1.1-.28,1.09-1.11,0-4.1,0-8.19,0-12.29,0-.88.26-1.17,1.14-1.15,2.15.06,4.3,0,6.45,0,.72,0,1,.24,1,1q0,17.61,0,35.23c0,.82-.3,1.06-1.07,1-2.09,0-4.19,0-6.28,0-1.14,0-1.18-.05-1.18-1.18,0-4.33,0-8.66,0-13,0-1.21,0-1.22-1.21-1.22q-4.62,0-9.24,0c-1.24,0-1.25,0-1.25,1.29,0,4.33,0,8.66,0,13,0,.87-.24,1.17-1.13,1.14-2.07-.06-4.13,0-6.19,0-1.11,0-1.19-.08-1.19-1.2V83.56"/><path class="cls-1" d="M42.29,102.12c.07-.32.12-.62.21-.92q5.61-17.52,11.2-35a1.32,1.32,0,0,1,1.54-1.11c2.64.06,5.29,0,7.93,0a1.19,1.19,0,0,1,1.35,1Q70,83.66,75.46,101.27c.08.26.12.55.2.91a6,6,0,0,1-.83.11c-2.47,0-4.94,0-7.42,0a1.08,1.08,0,0,1-1.23-.92c-.55-2-1.18-4-1.74-5.94a1,1,0,0,0-1.17-.88q-5.15,0-10.29,0a1,1,0,0,0-1.17.88c-.58,2-1.19,4-1.85,6-.11.33-.53.79-.82.8-2.15.07-4.3,0-6.45,0a1.47,1.47,0,0,1-.4-.14M54.16,87.76H61c1,0,1.08-.08.79-1.05q-1.64-5.5-3.3-11a5.44,5.44,0,0,0-.28-.66H58L54.16,87.76"/><path class="cls-1" d="M121.46,84c.26,2.16.41,4.34.82,6.47a6.35,6.35,0,0,0,12.14,1.49,18,18,0,0,0,.79-2.49.71.71,0,0,1,.85-.63c2.26.16,4.52.33,6.78.45.81,0,.89.46.79,1.09a14.08,14.08,0,0,1-13.34,12.42c-9.21.74-16.21-4.66-17.81-13.84a25.83,25.83,0,0,1,1.16-14.32,15.27,15.27,0,0,1,14.87-10.09A15.33,15.33,0,0,1,137.78,67c3.17,2.22,4.67,5.47,5.52,9.1.11.48.19,1,.28,1.45.22,1.22.08,1.4-1.11,1.47-2.27.13-4.53.23-6.79.39-.81.06-1-.27-1.1-1a12.61,12.61,0,0,0-.48-2.65,5.3,5.3,0,0,0-4.9-4.16,5.67,5.67,0,0,0-5.88,3.08,15.56,15.56,0,0,0-1.61,6.46c-.07,1,0,1.91,0,2.87l-.24,0"/><path class="cls-1" d="M94,64.52a14.57,14.57,0,0,1,9.1,2.79c3,2.32,4.39,5.56,5.16,9.14.09.43.15.86.22,1.29.18,1.05.11,1.18-.93,1.25-2.38.15-4.76.26-7.14.42-.63,0-.81-.17-.91-.81a18.2,18.2,0,0,0-.83-3.72c-1.61-4.29-7.71-4.27-9.92-1.12a13.36,13.36,0,0,0-2.08,6.4,31.09,31.09,0,0,0,.5,10.4c1,4.32,4.41,5.92,8.23,5a5.49,5.49,0,0,0,3.81-3.43,18.63,18.63,0,0,0,.86-2.65.79.79,0,0,1,.92-.69c2.29.17,4.58.32,6.87.47.54,0,.77.23.7.82a14.2,14.2,0,0,1-12.61,12.62c-9.36,1.11-16.58-4-18.48-13.29C76.35,84,76.55,78.64,79,73.58c2.93-6.1,7.87-9.11,15-9.06"/><path class="cls-1" d="M148.91,83.62q0-8.67,0-17.35c0-1.19,0-1.2,1.22-1.2,4.85,0,9.71,0,14.56,0a25.16,25.16,0,0,1,4.16.4,10.69,10.69,0,0,1,8.86,11.34,16.35,16.35,0,0,1-.93,4.66,10,10,0,0,1-9.28,6.77c-2.84.19-5.69.13-8.54.18-1.19,0-1.19,0-1.19,1.23V101.1c0,1.12-.07,1.19-1.19,1.19-2.18,0-4.36,0-6.54,0-.86,0-1.27-.27-1.14-1.16a1,1,0,0,0,0-.17Zm8.55-6.93c0,1.36,0,2.73,0,4.09,0,.7.22,1,1,1,2,0,4.06,0,6.08-.13a4.71,4.71,0,0,0,4.61-4.84,4.6,4.6,0,0,0-4.41-4.9c-2.14-.18-4.29-.12-6.43-.18-.62,0-.8.31-.79.88,0,1.36,0,2.73,0,4.09"/><path class="cls-1" d="M78.36,23.33l5,4.05-.06.31c-.82.22-1.63.49-2.46.65-.21,0-.51-.23-.73-.4-1-.86-2-1.75-3.07-2.58a3.57,3.57,0,0,0-1.28-.7c-1.4-.35-2,.3-1.65,1.63.28,1,.53,2,.83,2.94.16.52,0,.78-.5,1-1.65.55-1.64.57-2.1-1.12-.87-3.1-1.71-6.21-2.63-9.31-.25-.86,0-1.19.81-1.38,2-.47,3.92-1.08,5.91-1.48a3,3,0,0,1,3.58,2A3.22,3.22,0,0,1,78.81,23l-.45.32M76,19l-1.41.35c-2.4.66-2.4.66-1.6,3,0,.08,0,.2.09.24s.44.39.59.34a27.19,27.19,0,0,0,3.32-1,1.32,1.32,0,0,0,.74-1.74A1.52,1.52,0,0,0,76,19"/><path class="cls-1" d="M125.65,37.54c2.8-3.23,5.45-6.29,8.28-9.54,1.72,1.67,3.47,3.2,5,4.91a3.57,3.57,0,0,1,.44,3.58,8.57,8.57,0,0,1-4.62,5.29,3.72,3.72,0,0,1-3.76-.09c-1.82-1.26-3.51-2.72-5.34-4.15m11.74-2.69a9.55,9.55,0,0,0-.85-1.59A20.25,20.25,0,0,0,135,31.75c-.41-.4-.72-.42-1.13.07-1.09,1.31-2.24,2.58-3.35,3.88-1.71,2-1.7,2,.48,3.6a2.32,2.32,0,0,0,3.32-.06,17.66,17.66,0,0,0,2.31-2.57,8.1,8.1,0,0,0,.78-1.82"/><path class="cls-1" d="M121.18,20.75c2.56,1.3,5.08,2.55,7.58,3.85.8.41.06.88-.07,1.31s-.44.7-1,.41c-1.44-.76-2.92-1.44-4.35-2.22-.74-.4-1.13-.37-1.51.48-.85,1.87-1,1.45.78,2.37,1.11.58,2.22,1.16,3.35,1.68.76.35.44.79.2,1.27s-.42,1-1.15.55c-1.35-.73-2.76-1.37-4.11-2.09-.57-.3-.9-.24-1.15.36a12.67,12.67,0,0,1-.79,1.56c-.38.61-.16.92.42,1.2,1.54.75,3,1.56,4.6,2.3.58.29.82.58.43,1.19s-.42,1.16-1.32.68c-2.28-1.22-4.6-2.36-6.91-3.52-.4-.2-.71-.38-.43-.92q2.56-5,5.12-10.1a3.64,3.64,0,0,1,.3-.36"/><path class="cls-1" d="M70.68,31.56c-2.6,1.52-5.1,3-7.62,4.42a.8.8,0,0,1-.74-.22c-1.9-3.2-3.76-6.42-5.64-9.63a.56.56,0,0,1,.24-.91c2.27-1.31,4.53-2.62,6.77-4,.65-.39.81.08,1,.48s.72.86,0,1.29c-1.49.86-3,1.76-4.45,2.59-.59.32-.7.63-.34,1.22,1.26,2,.75,1.79,2.64.74,1-.57,2.09-1.15,3.08-1.8.7-.46.9,0,1.18.45s.62.92-.15,1.34c-1.33.71-2.6,1.53-3.93,2.25-.66.35-.69.69-.33,1.3,1.26,2.15,1.25,2.16,3.44.9,1-.56,2-1.09,2.93-1.71.69-.45,1.14-.46,1.46.37a9.33,9.33,0,0,0,.45.88"/><path class="cls-1" d="M53.2,42.43a18.21,18.21,0,0,1-2.66-.94,7.43,7.43,0,0,1-3.88-7.14c.5-3.28,4.37-5.59,7.21-4.29.83.38.81.47.33,1.27a1.51,1.51,0,0,1-2,.8A2.8,2.8,0,0,0,49,35.82a6.81,6.81,0,0,0,3.48,4,2.79,2.79,0,0,0,3.85-3.28c-.09-.34-.24-.93-.11-1A8.22,8.22,0,0,1,58,34.68c.08,0,.35.33.44.55A4.47,4.47,0,0,1,58,39.7a6.24,6.24,0,0,1-4.77,2.73"/><path class="cls-1" d="M100.6,27.43l1.12-4.83c.49-2.12,1-4.23,1.46-6.36.15-.68.46-.83,1.09-.67q3.3.8,6.61,1.53c.65.14.8.47.62,1s-.18,1.19-1.09,1c-1.43-.38-2.88-.66-4.32-1-.55-.14-.82,0-.93.55-.58,2.68-.8,2.13,1.55,2.72.68.17,1.35.36,2,.47s1,.49.77,1.26-.49.94-1.21.75c-1.06-.29-2.15-.5-3.21-.78-.67-.18-1,0-1.15.7-.22,1.17-.53,2.32-.78,3.48-.13.56-.39.81-1,.61-.36-.12-.73-.18-1.09-.27s-.5-.13-.5-.14"/><path class="cls-1" d="M91.76,14.64c.45.14,1.27-.48,1.36.68s.15,1.16-1,1.31c-.43.05-.87.09-1.3.11-1.19.05-1.26.16-1.16,1.35q.34,4,.62,8c0,.36-.11,1-.3,1a5.85,5.85,0,0,1-1.87.12c-.09,0-.21-.49-.23-.76-.24-2.83-.49-5.66-.67-8.5-.05-.75-.36-1-1-.88s-1.27.1-1.91.16c-.81.09-.86-.45-.92-1s.14-1,.83-1c2.51-.16,5-.35,7.61-.54"/><path class="cls-1" d="M112.93,30.9a16.88,16.88,0,0,1-1.78-.68c-.13-.06-.2-.47-.13-.67,1.15-3.5,2.33-7,3.48-10.5.18-.52.47-.55.94-.41,1.62.46,1.63.45,1.1,2Q115,25.34,113.42,30a6,6,0,0,1-.49.89"/><path class="cls-1" d="M97.66,15c1.35.06,1.41.08,1.33,1.18-.26,3.48-.58,6.94-.82,10.42-.08,1.14-.87.76-1.46.77s-1.07-.23-1-1.05c.31-3.55.6-7.11.84-10.67.07-1,.71-.6,1.11-.65"/><path class="cls-1" d="M133.63,124.59a4.36,4.36,0,0,1-.61.94,15.9,15.9,0,0,1-1.56,1.26c-.59.4-.72.74-.2,1.37,1.76,2.14,3.44,4.33,5.15,6.5.21.26.4.55.66.91l-1.87,1.49L132,133c-1.05-1.31-2.09-2.63-3.19-4-.76.59-1.48,1.08-2.11,1.67s-1,.46-1.44-.2c-.15-.24-.33-.46-.55-.77.37-.32.7-.64,1-.92l6.44-5.08c.11-.09.27-.16.33-.28.7-1.25,1.75-1.24,3-.92s2.38.43,3.77.67c-.18-.62-.3-1.07-.45-1.52-.34-1-.66-2-1-3.06a1.27,1.27,0,0,1,.34-1.56c.39-.37.73-.79,1.21-1.31.16.46.27.75.36,1,.63,2.08,1.22,4.18,1.89,6.25a3.17,3.17,0,0,0,.82,1.28c1,1,2.12,1.89,3.28,2.9a15.88,15.88,0,0,1-1.28,1.47.79.79,0,0,1-.77-.05c-1-.77-1.83-1.63-2.79-2.37a3.8,3.8,0,0,0-1.62-.74c-1.88-.35-3.78-.6-5.55-.87"/><path class="cls-1" d="M48.75,133c0-3.33,3.2-6.79,6.49-7,2.75-.15,7.27,3,6.07,7.32-.77,2.74-2.42,4.86-5.36,5.53-3.44.79-7.2-2.34-7.2-5.88m6.91-4.75a9.21,9.21,0,0,0-1.75.68,6.15,6.15,0,0,0-2.58,3.4A3.25,3.25,0,0,0,52.5,136a3.22,3.22,0,0,0,4,.08,6.75,6.75,0,0,0,2.42-3.13,3.5,3.5,0,0,0-3.23-4.68"/><path class="cls-1" d="M72,138.42c0,3.15-2.27,6.28-5,6.94a6.13,6.13,0,0,1-7.41-6.8,7.1,7.1,0,0,1,5.6-6,6.24,6.24,0,0,1,6.79,5.9m-10,1.11A3.39,3.39,0,0,0,64.07,143a3,3,0,0,0,3.65-.83A11.06,11.06,0,0,0,69.43,139a3,3,0,0,0-1.33-3.65,3.22,3.22,0,0,0-3.83,0A6.08,6.08,0,0,0,62,139.53"/><path class="cls-1" d="M82.29,142.69a9.09,9.09,0,0,1-1.51,4.58,4.48,4.48,0,0,1-4.92,2c-1.65-.33-3.26-.86-4.89-1.28-.47-.12-.59-.36-.46-.82q1.47-5.34,2.92-10.67c.14-.52.41-.6.91-.46,1.47.44,3,.8,4.44,1.26,2.46.77,3.56,2.36,3.51,5.39M80.07,142l-.22-.08A2.47,2.47,0,0,0,78,139.22a10.78,10.78,0,0,0-1.92-.55c-.24,0-.71.18-.76.37-.68,2.29-1.31,4.58-1.91,6.89a.83.83,0,0,0,.37.7,17.2,17.2,0,0,0,2.45.61,2.1,2.1,0,0,0,2.49-1.31c.53-1.27.91-2.6,1.35-3.91"/><path class="cls-1" d="M92.27,151.87c-.84-.16-1.65-.25-2.43-.47a3.64,3.64,0,0,1-2.46-2.29,9,9,0,0,1-.26-1.58,15.11,15.11,0,0,1,1.87-.22c.17,0,.41.35.51.59a2.9,2.9,0,0,0,4,1.59A1.52,1.52,0,0,0,94.51,148a1.37,1.37,0,0,0-1.07-1.33c-1.25-.45-2.54-.82-3.76-1.35a3.13,3.13,0,0,1-2-3,3.16,3.16,0,0,1,2.12-3.09,6.64,6.64,0,0,1,5,.19,3.26,3.26,0,0,1,2,2.68c.07.47-.08.72-.59.72-.88,0-1.71.17-2.17-1s-3-1.24-3.79-.33a.94.94,0,0,0,.29,1.49,10.81,10.81,0,0,0,1.75.74c.9.33,1.84.57,2.7,1a3.31,3.31,0,0,1,2,3.44,3.47,3.47,0,0,1-2.45,3.27,17.67,17.67,0,0,1-2.28.45"/><path class="cls-1" d="M125,132.13c-.33.19-.59.36-.87.49l-3.92,1.91a5,5,0,0,1-.47.22c-.77.26-.65.81-.27,1.21s.12,1.94,1.48,1.35,2.58-1.2,3.85-1.84c.65-.33,1.11-.57,1.57.35s.07,1.16-.63,1.47c-1.3.59-2.56,1.25-3.86,1.84-.55.25-.65.52-.4,1.07,1.09,2.47,1.08,2.47,3.5,1.29,1.1-.53,2.21-1,3.29-1.6.6-.31.86,0,1,.47s.72,1-.13,1.36c-2.44,1.16-4.87,2.34-7.3,3.52-.4.2-.63.11-.82-.29q-2.41-5-4.85-10c-.23-.47-.07-.69.34-.89q3.51-1.67,7-3.37c.45-.22.76-.2.95.32.15.37.32.74.51,1.16"/><path class="cls-1" d="M109.83,149.46l-1.66.37a1,1,0,0,1-1.16-.52c-1.28-1.93-1.29-1.93-3.53-1.48a2.38,2.38,0,0,1-.26,0c-1.76,0-2.83.73-2.73,2.69,0,.56-.34.86-.93.92a13.33,13.33,0,0,0-1.55.29,6.38,6.38,0,0,1,0-1c.66-3.66,1.36-7.31,2-11,.15-.9.54-1.28,1.39-1.32a8,8,0,0,1,.94-.15,1.05,1.05,0,0,1,.72.32q3.38,5.19,6.71,10.41a1.39,1.39,0,0,1,.08.38m-5.17-3.92-2.47-4-.25.08c-.23,1.46-.46,2.92-.73,4.58l3.45-.63"/><path class="cls-1" d="M54.4,123.88a2,2,0,0,1-.14.29c-1,1.25-1.08,1.24-2.23.11s-2.13-2-3.28-3.13a20.83,20.83,0,0,0-1.67,1.61.87.87,0,0,0,.1.83c1,1.09,2,2.15,3.11,3.29-.5.48-.94.88-1.48,1.39-1.21-1.27-2.37-2.47-3.58-3.72-1.15,1.08-2.22,2.06-3.24,3.08-.45.46-.75.47-1.19,0-1.29-1.46-1.23-1,.07-2.29,2.35-2.29,4.73-4.55,7.06-6.86.52-.5.83-.52,1.33,0,1.51,1.62,3.06,3.18,4.59,4.77.2.21.37.44.55.64"/><path class="cls-1" d="M111.62,149.2a2.11,2.11,0,0,1-.4-.53c-1.29-3.45-2.56-6.91-3.85-10.37-.19-.5,0-.74.44-.91,2.18-.8,4.37-1.58,6.53-2.43.81-.31.93.17,1.13.72s.36,1-.4,1.21c-1.37.46-2.72,1-4.09,1.48-.61.21-.82.46-.57,1.14.76,2,.73,2,2.75,1.31a21.46,21.46,0,0,0,2.12-.79c.84-.4,1,.16,1.2.73s.17,1-.53,1.22c-1.08.35-2.12.81-3.2,1.15-.7.23-.82.55-.54,1.22.44,1,.75,2.14,1.2,3.17.32.73.12,1.08-.6,1.27-.36.09-.71.24-1.19.41"/></g></g></svg>