<svg xmlns="http://www.w3.org/2000/svg" viewBox="0 0 22.99 22.99"><defs><style>.cls-1{fill:#3c3c3b;}</style></defs><g id="Layer_2" data-name="Layer 2"><g id="Layer_1-2" data-name="Layer 1"><path class="cls-1" d="M15.39,16.64a2.14,2.14,0,0,0,1.25-1.25,3.64,3.64,0,0,0,.23-1.23c0-.69,0-.9,0-2.66s0-2,0-2.67a3.76,3.76,0,0,0-.23-1.23,2.07,2.07,0,0,0-.49-.76,2,2,0,0,0-.76-.49,3.64,3.64,0,0,0-1.23-.23c-.69,0-.9,0-2.66,0s-2,0-2.67,0a3.64,3.64,0,0,0-1.23.23A2.14,2.14,0,0,0,6.35,7.6a3.76,3.76,0,0,0-.23,1.23c0,.69,0,.9,0,2.67s0,2,0,2.66a3.64,3.64,0,0,0,.23,1.23A2.17,2.17,0,0,0,7.6,16.64a3.64,3.64,0,0,0,1.23.23c.69,0,.9,0,2.67,0s2,0,2.66,0a3.64,3.64,0,0,0,1.23-.23M8.11,11.5a3.39,3.39,0,1,1,3.39,3.39A3.38,3.38,0,0,1,8.11,11.5M14.23,15a.79.79,0,1,1,.79.79.79.79,0,0,1-.79-.79"/><path class="cls-1" d="M23,11.5A11.5,11.5,0,1,0,11.5,23,11.5,11.5,0,0,0,23,11.5M8.77,18.06a4.86,4.86,0,0,1-1.6-.31,3.37,3.37,0,0,1-1.93-1.93,5.14,5.14,0,0,1-.31-1.6c0-.71,0-.93,0-2.72s0-2,0-2.73a5.14,5.14,0,0,1,.31-1.6A3.36,3.36,0,0,1,7.17,5.24a5.14,5.14,0,0,1,1.6-.31c.71,0,.93,0,2.73,0s2,0,2.72,0a5.14,5.14,0,0,1,1.6.31,3.36,3.36,0,0,1,1.93,1.93,4.86,4.86,0,0,1,.31,1.6c0,.71,0,.93,0,2.73s0,2,0,2.72a4.86,4.86,0,0,1-.31,1.6A3.38,3.38,0,0,1,17,17a3.24,3.24,0,0,1-1.17.76,4.86,4.86,0,0,1-1.6.31c-.71,0-.93,0-2.72,0s-2,0-2.73,0"/></g></g></svg>