<svg xmlns="http://www.w3.org/2000/svg" viewBox="0 0 176.21 176.19"><defs><style>.cls-1{fill:#fff;}</style></defs><g id="Layer_2" data-name="Layer 2"><g id="Layer_1-2" data-name="Layer 1"><path class="cls-1" d="M88.12,0A88.1,88.1,0,1,1,0,88,88.11,88.11,0,0,1,88.12,0m0,1A87.1,87.1,0,1,0,175.2,88.14,87.09,87.09,0,0,0,88.13,1"/><path class="cls-1" d="M88.12,28.16A59.92,59.92,0,1,1,28.2,88.06a59.87,59.87,0,0,1,59.92-59.9m24.69,37.26-1.42.1a18.27,18.27,0,0,0-5.21,1.09,11.31,11.31,0,0,0-7.61,7.75,20.85,20.85,0,0,0-.7,8.57,14.19,14.19,0,0,0,1.82,5.56,12.13,12.13,0,0,0,6.12,4.93,20.82,20.82,0,0,0,15.4-.15,11.3,11.3,0,0,0,5.37-4.61,17,17,0,0,0,2-9.08,27.26,27.26,0,0,0-.5-4A10.8,10.8,0,0,0,122.87,68a19.76,19.76,0,0,0-10.06-2.55m-22.9,2.47c-.82-.42-1.46-.81-2.15-1.09A18.92,18.92,0,0,0,82,65.51a15.56,15.56,0,0,0-6.46.83,8.15,8.15,0,0,0-5,4.1,8.65,8.65,0,0,0-.79,4.73,7.36,7.36,0,0,0,1.18,3.6,10.48,10.48,0,0,0,5.48,3.91c2.51.83,5.06,1.57,7.58,2.35,1.1.33,2.19.67,3.28,1,.54.18.91.59.84.93-.09.5-.5.65-.94.76a11.41,11.41,0,0,1-4.43.26c-2.8-.41-5.23-1.48-6.81-4a.64.64,0,0,0-.62-.33c-1.61,0-3.23,0-4.84,0-.42,0-.53.15-.53.54q0,4.73,0,9.45c0,.42.13.57.56.56,1.78,0,3.55-.07,5.33-.07.45,0,.57-.15.54-.57s0-.84,0-1.36l.66.31c.67.33,1.31.71,2,1a19,19,0,0,0,6.8,1.28,15.47,15.47,0,0,0,6-1.09,8.34,8.34,0,0,0,5-9.9,9.39,9.39,0,0,0-6.57-6.53c-3.07-1-6.19-1.81-9.29-2.72a11.32,11.32,0,0,1-1.8-.64.86.86,0,0,1-.08-1.59A2.58,2.58,0,0,1,80.22,72a13,13,0,0,1,4.16.37A9.18,9.18,0,0,1,90,75.85a.71.71,0,0,0,.5.2c1.4,0,2.81,0,4.21,0,.47,0,.94-.07,1.44-.1,0-1.14,0-2.22,0-3.31,0-2-.07-4.06-.09-6.09,0-.29-.1-.4-.39-.39-1.79,0-3.58.06-5.37.07-.36,0-.42.15-.41.46s0,.73,0,1.2M68.38,65.82l-.52,0c-2.11,0-4.23-.05-6.35,0-3.69,0-7.37,0-11.06,0-.44,0-.56.14-.56.56q0,3,0,5.91c0,.43.14.6.59.6,1,0,2.06,0,3.09.05.39,0,.45.19.45.53,0,1.73,0,3.46,0,5.2q0,3.91,0,7.83c0,.83,0,.82-.8.83-1,0-1.94,0-2.91.06-.36,0-.44.15-.44.49,0,2,0,3.91,0,5.86,0,.44.15.55.56.55q8.7,0,17.38,0c.43,0,.57-.14.56-.56,0-1.9,0-3.79,0-5.69,0-.65,0-.68-.68-.69-1,0-2,0-3,0-.61,0-.63,0-.63-.62,0-2.61,0-5.23,0-7.84,0-1.82,0-3.64,0-5.46,0-.34.09-.48.45-.48,1,0,2.11,0,3.17,0,.58,0,.59,0,.59-.6,0-1.38,0-2.75,0-4.12,0-.76,0-1.52,0-2.31M108,62.63a31.33,31.33,0,0,0-3.65-4.88l.36-.24c.79-.45,1.59-.89,2.36-1.36a.77.77,0,0,1,1,.08,31.45,31.45,0,0,1,5.82,6.1,1.24,1.24,0,0,0,1.64.26A32.84,32.84,0,0,0,82.64,48.43,32.18,32.18,0,0,0,65,57.31a30.29,30.29,0,0,0-4.48,5.5,5.26,5.26,0,0,1,.72,0,1.11,1.11,0,0,0,1.12-.54,27.52,27.52,0,0,1,2.27-2.76c1.15-1.16,2.41-2.22,3.62-3.32a.45.45,0,0,1,.63,0c.76.45,1.53.87,2.29,1.31.2.11.4.24.61.38a33.9,33.9,0,0,0-3.52,4.88,1.28,1.28,0,0,0,1.72-.47c.93-1.2,1.9-2.38,2.84-3.57a.48.48,0,0,1,.62-.14q2.35.84,4.72,1.63c.29.09.38.19.23.47s-.14.32-.21.49c-.23.52-.46,1.05-.72,1.67a7,7,0,0,1,.8,0,.66.66,0,0,0,.78-.49,12.26,12.26,0,0,1,.69-1.41.52.52,0,0,1,.44-.21,37.56,37.56,0,0,0,6.51.77c.75,0,.79.05.77.79,0,.4.12.59.55.54.14,0,.31,0,.44,0a.66.66,0,0,0,.35-.3c.08-.29,0-.73.17-.87s.62-.1,1-.14l.18,0a32.63,32.63,0,0,0,5.73-.78.46.46,0,0,1,.61.28c.26.53.55,1.05.84,1.58a1.11,1.11,0,0,0,1.17.21c.41-.22,0-.47,0-.67-.23-.61-.51-1.19-.75-1.73l5.24-2c.28-.11.39,0,.52.19,1,1.23,2,2.42,2.91,3.69.42.59.85.65,1.72.34M60.55,97.15a31.28,31.28,0,0,0,8.65,8.91,32.78,32.78,0,0,0,23.21,5.73,31.89,31.89,0,0,0,18.81-9,30.67,30.67,0,0,0,4.62-5.63c-1.27-.19-1.34-.16-2,.74-.1.15-.21.29-.32.43a29.94,29.94,0,0,1-5.3,5.43.6.6,0,0,1-.53.08c-.86-.46-1.69-.95-2.53-1.43l-.53-.35a33.37,33.37,0,0,0,3.54-4.89c-1.09-.24-1.31-.13-1.92.68-.86,1.15-1.75,2.26-2.65,3.37a.57.57,0,0,1-.51.18c-1.65-.55-3.29-1.13-4.93-1.7-.27-.09-.3-.23-.19-.47.2-.4.4-.8.57-1.21s.19-.57.31-.92a6.06,6.06,0,0,1-.76,0,.62.62,0,0,0-.72.44c-.22.48-.49,1-.72,1.44-.11.24-.24.27-.52.23-2.12-.3-4.24-.59-6.36-.83-.81-.09-.8,0-.88-.81,0-.16-.13-.41-.25-.44-.76-.22-1,0-1,.77,0,.37-.15.46-.51.48-1.21.09-2.43.2-3.64.34-1,.12-2,.29-3,.46a.48.48,0,0,1-.61-.32c-.19-.42-.42-.82-.63-1.23a1,1,0,0,0-1.54-.41l1,2.35c-.08.06-.11.1-.15.11-1.71.6-3.42,1.21-5.14,1.79a.63.63,0,0,1-.53-.17c-1-1.26-2-2.53-3-3.83a.87.87,0,0,0-.86-.43c-.23,0-.46.07-.76.12a36,36,0,0,0,3.61,5c-1,.58-2,1.11-2.93,1.67a.55.55,0,0,1-.71-.08,31.09,31.09,0,0,1-6-6.27c-.1-.15-.26-.34-.41-.36a11.09,11.09,0,0,0-1.32,0m-8.5,30.27a2.67,2.67,0,0,0,1.77,3.14,5.21,5.21,0,0,0,2.42.16A2.69,2.69,0,0,0,58.79,128c0-2.18,0-4.36,0-6.53a2.48,2.48,0,0,0-1.94-2.53,7.3,7.3,0,0,0-2.33-.17,2.55,2.55,0,0,0-2.5,2.32,15.35,15.35,0,0,0,0,3.25,2.14,2.14,0,0,0,1.73,2.17,2.74,2.74,0,0,0,2.7-.73c0,.79,0,1.53,0,2.27a.81.81,0,0,1-.59.86c-.46.11-1,.21-1.34-.21a2.16,2.16,0,0,1-.25-.87c0-.19,0-.4-.29-.4-.63,0-1.25,0-1.89,0m43.59-2.69c0,1.06,0,2.12,0,3.18a2.66,2.66,0,0,0,2.09,2.71,5.14,5.14,0,0,0,2.64,0A2.63,2.63,0,0,0,102.5,128c0-2.16,0-4.33,0-6.49a2.59,2.59,0,0,0-2.19-2.66,8.27,8.27,0,0,0-1.86-.1,2.77,2.77,0,0,0-2.81,2.91v3.08m-35.65,0V128a2.51,2.51,0,0,0,1.79,2.51,6.23,6.23,0,0,0,1.92.26,2.86,2.86,0,0,0,3.13-3c0-2,0-4,0-6A2.71,2.71,0,0,0,65,118.93a5.55,5.55,0,0,0-2.43-.19A2.71,2.71,0,0,0,60,121.61v3.14m8,0V128a2.54,2.54,0,0,0,1.84,2.52,6.38,6.38,0,0,0,1.89.25c1.94-.06,3.08-1.1,3.12-2.89,0-2.09,0-4.18,0-6.27A2.66,2.66,0,0,0,73,118.93a5.5,5.5,0,0,0-2.42-.19,2.74,2.74,0,0,0-2.6,2.87v3.14m44.19-5.93a6.52,6.52,0,0,0-.1.65c-.12,2-.23,3.93-.36,5.89,0,.28.1.38.36.38s.59,0,.89,0a1.76,1.76,0,0,0,.87-.09c.14-.08.11-.46.16-.7a.06.06,0,0,1,0,0c.14-.53.55-.73,1.3-.65a.82.82,0,0,1,.78.83c0,1,0,2,0,3a.78.78,0,0,1-.66.8,1.09,1.09,0,0,1-1.51-1.16c0-1,0-1-1-1-1.37,0-1.19-.22-1.15,1.23a2.58,2.58,0,0,0,1.91,2.62,5,5,0,0,0,2.65.07,2.48,2.48,0,0,0,2.11-2.34,28.84,28.84,0,0,0,0-3.48c-.11-1.89-1.38-2.66-3.18-2.33a6.94,6.94,0,0,0-1.18.5c0-.71.07-1.42.1-2.14,0-.28.2-.28.41-.28h2.24c1.32,0,1.3,0,1.29-1.32,0-.35-.12-.46-.47-.45-1.43,0-2.87,0-4.3,0Zm-22,10a1.46,1.46,0,0,1,.08-.49,13.69,13.69,0,0,1,1.09-1.5c.59-.65,1.28-1.21,1.87-1.86a4.73,4.73,0,0,0,1.4-3.15c0-1.39-.43-2.59-2-3a6.52,6.52,0,0,0-2.29-.1A2.48,2.48,0,0,0,88,120.67a5.07,5.07,0,0,0-.14,1.28c0,1.09-.17,1,.94,1,1.27,0,1.27,0,1.27-1.24v-.09c0-.71.36-1.07,1-1.08a1,1,0,0,1,1.15,1,3.24,3.24,0,0,1-.82,2.44c-.73.8-1.52,1.55-2.3,2.3a4.71,4.71,0,0,0-1.22,4.31h6.47c0-.41,0-.8,0-1.18s-.1-.59-.56-.58c-1.19,0-2.38,0-3.67,0m-8.59-4.1V120c0-1.15,0-1.14-1.15-1.15a.59.59,0,0,0-.65.39,1.8,1.8,0,0,1-1.56,1c-.72.09-.73.07-.73.8a2.43,2.43,0,0,1,0,.27c0,.3.1.44.42.42s.54,0,.8,0,.55.12.5.5a2.16,2.16,0,0,0,0,.36q0,3.77,0,7.53c0,.33,0,.54.46.51a12.18,12.18,0,0,1,1.48,0c.36,0,.45-.12.45-.46,0-1.81,0-3.61,0-5.42m27.68,5.85V119.94c0-1.12,0-1.11-1.12-1.12a.6.6,0,0,0-.66.38,1.78,1.78,0,0,1-1.73,1c-.42,0-.61.14-.56.57a1.45,1.45,0,0,1,0,.36c0,.41.11.62.55.57.24,0,.48,0,.72,0s.51.09.5.49c0,2.61,0,5.22,0,7.83v.55Zm-24,0c.27,0,.54,0,.8,0s.38-.11.37-.37,0-.78,0-1.17c0-.24-.1-.34-.35-.34H84.82c-.81,0-.73-.1-.73.74,0,1.12,0,1.12,1.12,1.12m0-8.22H84.4c-.22,0-.32.09-.31.32q0,.6,0,1.2c0,.25.07.36.33.35H86c.25,0,.36-.09.35-.34s0-.27,0-.4c0-1.13,0-1.13-1.13-1.12"/><path class="cls-1" d="M63.47,167.45c-.86-.24-1.64-.47-2.43-.67-.33-.09-.28-.26-.21-.51.76-2.72,1.51-5.44,2.27-8.16s1.55-5.58,2.32-8.38l.11-.28,2.66.72c.47.13.94.29,1.42.4.25.06.35.17.33.42-.08,1-.14,2-.21,2.94s-.16,2-.25,3l-.33,4c-.07.83-.13,1.66-.19,2.49a1.75,1.75,0,0,0,.05.34,6.48,6.48,0,0,0,.34-.56c1.71-3.56,3.43-7.11,5.12-10.68.2-.43.41-.5.85-.37,1.14.35,2.29.66,3.43,1,.35.09.45.2.34.58q-2.31,8.3-4.6,16.59a2.34,2.34,0,0,1-.11.21l-3-.82c1.16-4.16,2.3-8.28,3.44-12.39l-.14-.05c-.07.13-.16.26-.22.4q-2.62,5.46-5.23,10.93c-.16.33-.3.47-.7.34-.7-.24-1.42-.42-2.14-.61-.27-.07-.4-.18-.38-.49.12-1.33.22-2.67.33-4l.21-2.81c.14-1.75.29-3.5.43-5.25,0-.15,0-.3,0-.45l-.16,0c-1.12,4.05-2.25,8.1-3.39,12.2"/><path class="cls-1" d="M135.39,155.28c-.9.61-1.77,1.21-2.66,1.78a.56.56,0,0,1-.45-.11q-3.18-2.47-6.34-5l-3.84-3a2.14,2.14,0,0,0-.32-.2l-.09.09L129,159.62l-2.45,1.66-10-14.84c1.11-.75,2.19-1.49,3.29-2.2.1-.07.34,0,.46.09,1.85,1.44,3.68,2.89,5.52,4.34l2.67,2.11.39.28.12-.1c-2-3-4-5.89-6-8.88l2.42-1.64,10,14.84"/><path class="cls-1" d="M43,154.68a4.08,4.08,0,0,1,.77-2.36c1.77-2.68,3.53-5.35,5.33-8a4,4,0,0,1,5.15-1.59,7.88,7.88,0,0,1,3.06,2.13,5.22,5.22,0,0,1,.77,1.2,3.89,3.89,0,0,1-.46,3.93c-1.4,2.15-2.83,4.28-4.25,6.42-.39.58-.77,1.17-1.18,1.74a3.93,3.93,0,0,1-4.88,1.51,7.78,7.78,0,0,1-3.51-2.53,3.77,3.77,0,0,1-.8-2.44m12.34-7.6a3.66,3.66,0,0,0-.14-.62,2.3,2.3,0,0,0-1.78-1.28,1.6,1.6,0,0,0-1.54.89c-1.81,2.72-3.62,5.43-5.41,8.16a2.39,2.39,0,0,0-.37,1A1.89,1.89,0,0,0,47.57,157a1.49,1.49,0,0,0,1.89-.7Q52.24,152.19,55,148a4.82,4.82,0,0,0,.39-.94"/><path class="cls-1" d="M134.15,42.83l13-11c.78.92,1.54,1.8,2.28,2.69.58.7,1.18,1.4,1.7,2.14a3.84,3.84,0,0,1,.69,3.26,4,4,0,0,1-1.35,2c-2.23,1.9-4.46,3.82-6.73,5.69-2,1.66-3.89,1.57-5.7-.3-1.07-1.1-2-2.32-3-3.48l-.85-1M147.4,35.7l-9.44,8,1.14,1.35c.86,1,1.57,1.06,2.59.2l5.11-4.34c.58-.49,1.17-1,1.73-1.49a1.3,1.3,0,0,0,.4-1.75c-.45-.68-1-1.29-1.53-2"/><path class="cls-1" d="M67.41,18.36c1.87,0,2.71,1.15,3.23,2.63.24.71.46,1.44.73,2.15s.61,1.5.94,2.3c-.85.29-1.77.61-2.7.9-.09,0-.28-.09-.34-.19a7.15,7.15,0,0,1-.54-1.07c-.37-1-.7-2.06-1.07-3.07a3.55,3.55,0,0,0-.5-1,1.46,1.46,0,0,0-1.61-.6c-.47.11-.91.28-1.37.4s-.38.23-.27.55c.66,1.9,1.29,3.81,1.93,5.71,0,.14.09.28.16.49l-2.94,1c-.14-.4-.28-.75-.4-1.11L57.75,12.92c-.12-.34-.1-.51.3-.63,1.68-.53,3.35-1.14,5.05-1.63a6.69,6.69,0,0,1,2.1-.16,2.57,2.57,0,0,1,2.19,1.43,9.47,9.47,0,0,1,1.22,3.75,2.82,2.82,0,0,1-.88,2.3l-.32.38m-3.87-5.42c-.68.22-1.35.43-2,.66-.07,0-.14.23-.11.31q.75,2.29,1.54,4.56a.39.39,0,0,0,.3.19A13,13,0,0,0,65,18a1.21,1.21,0,0,0,.71-1.41,27.44,27.44,0,0,0-1-2.94,1.26,1.26,0,0,0-1.17-.7"/><path class="cls-1" d="M116.78,166.07c-1,.31-2,.63-2.92.91-.11,0-.33-.12-.4-.24-.42-.75-.81-1.52-1.21-2.29-.12-.23-.24-.32-.52-.22-1.13.37-2.26.73-3.4,1.07a.38.38,0,0,0-.31.49c.12.79.22,1.59.34,2.38.06.38,0,.61-.45.71-.77.21-1.53.47-2.36.73-.06-.4-.12-.76-.16-1.13-.28-2.45-.54-4.9-.83-7.35s-.58-4.9-.87-7.35c-.08-.65-.12-1.3-.2-1.95,0-.29.07-.38.33-.45,1.3-.4,2.61-.81,3.9-1.24.32-.11.45,0,.6.24q2.66,4.94,5.33,9.87l2.89,5.34c.08.14.14.29.24.48M111,162l-4.31-8.26-.17.07,1.21,9.22,3.27-1"/><path class="cls-1" d="M96,159.88a10.63,10.63,0,0,1-.19,1.72,3.56,3.56,0,0,1-3,2.71,23.2,23.2,0,0,1-2.88.28c-.29,0-.44.06-.41.4.06,1.07.09,2.14.13,3.22,0,.9,0,1.81.1,2.72,0,.39-.13.48-.49.48-.81,0-1.61.05-2.41.09-.27,0-.38-.08-.39-.35,0-1-.11-2-.14-3-.08-2.07-.13-4.14-.2-6.21-.08-2.52-.18-5-.28-7.55,0-.84,0-.82.8-.85,1.37,0,2.74-.12,4.11-.16a7.06,7.06,0,0,1,2.81.41,3.67,3.67,0,0,1,2.35,3.31c.09.82.09,1.66.14,2.77m-3.29.1h0c0-.42-.08-.83-.1-1.25s0-.83,0-1.25a1.53,1.53,0,0,0-1.79-1.63c-.41,0-.83.06-1.25.05s-.44.11-.42.44c0,1.19.07,2.38.11,3.57,0,.61.06,1.22.07,1.83,0,.31.12.43.43.41s.83-.07,1.24-.08c1.18,0,1.71-.54,1.71-1.73Z"/><path class="cls-1" d="M42.49,140.86l-2.06-2.37,1.38-1.2a1.84,1.84,0,0,0-.59-3.24,1.64,1.64,0,0,0-1.76.45l-2.31,2c-1.72,1.49-3.44,3-5.14,4.46a1.43,1.43,0,0,0-.53,1.78c.33.83,1.13,1.51,1.82,1.41a2.67,2.67,0,0,0,1.15-.52c.65-.49,1.25-1.05,1.93-1.63l2,2.36a16.67,16.67,0,0,1-3.15,2.39,3.6,3.6,0,0,1-3.43-.18,7.28,7.28,0,0,1-3.14-3.61,3.55,3.55,0,0,1,.71-4c.87-.91,1.86-1.72,2.82-2.55q2.46-2.15,4.95-4.26a4,4,0,0,1,5.69-.06,7.39,7.39,0,0,1,2.18,2.86,3.65,3.65,0,0,1-.6,4.08c-.59.67-1.28,1.23-2,1.88"/><path class="cls-1" d="M38.22,30.82l-2,2.07L35,31.72a1.61,1.61,0,0,0-2.73.13,1.41,1.41,0,0,0,.06,2.08c.85.92,1.74,1.8,2.62,2.69,1.32,1.33,2.63,2.66,3.95,4,.44.44.91.84,1.6.63A2.23,2.23,0,0,0,42,39.7a1.24,1.24,0,0,0-.35-1.2c-.48-.54-1-1.06-1.51-1.58l-.32-.34,2.07-2.09c1,1.18,2.48,2.08,2.81,3.83a3.56,3.56,0,0,1-.47,2.49,7.12,7.12,0,0,1-2.86,2.82,3.51,3.51,0,0,1-4.2-.4,27,27,0,0,1-2-1.9c-1.63-1.63-3.24-3.26-4.86-4.9A4,4,0,0,1,29,33.87a3.71,3.71,0,0,1,.19-1.52A6.5,6.5,0,0,1,33,28.55a3.46,3.46,0,0,1,3.77.78c.52.45,1,1,1.47,1.49"/><path class="cls-1" d="M131.48,37.21l-1.38,1.86-7-5.21L133.24,20.2l7,5.21-1.39,1.87-4.5-3.34-2.91,3.92L135,30.52l-1.38,1.87c-1.19-.88-2.36-1.74-3.56-2.64-.18.24-.35.44-.51.65-.76,1-1.51,2.07-2.3,3.09-.24.31-.18.45.12.66,1.25.91,2.49,1.84,3.74,2.77l.36.29"/><path class="cls-1" d="M41.67,21.09l7.42-4.61c.42.66.81,1.29,1.23,2l-4.75,3,2.57,4.15,3.78-2.35,1.23,2-3.78,2.36c.9,1.45,1.79,2.87,2.7,4.35L56.84,29c.41.67.8,1.29,1.23,2l-7.42,4.61-9-14.46"/><path class="cls-1" d="M139.69,137.33l-.23-.4c-1.39-2.16-2.78-4.32-4.18-6.46a.48.48,0,0,1,0-.69c.58-.66,1.13-1.34,1.73-2.07.12.18.21.31.29.45,1.88,3.18,3.79,6.34,5.62,9.55a9,9,0,0,0,2.22,2.3c1,.81,1.92,1.6,2.92,2.43L146,145l-2-1.6c-.78-.65-1.55-1.31-2.34-1.94A2.36,2.36,0,0,0,141,141l-11.11-4-.41-.19,1.55-1.88c.62-.75.63-.75,1.54-.37l6.48,2.66.53.2Z"/><path class="cls-1" d="M110.4,20.08l-3.33-.91c-.77-.2-.68-.27-.89.49-.52,1.9-1.06,3.8-1.57,5.71-.09.35-.21.42-.55.32-.71-.23-1.43-.41-2.15-.59-.33-.08-.42-.21-.32-.56q1.47-5.33,2.92-10.66c.44-1.6.89-3.21,1.31-4.81.1-.38.22-.5.64-.38,2.42.68,4.84,1.33,7.27,2,.29.08.42.17.31.52-.2.59-.34,1.2-.51,1.84l-2.81-.76c-.65-.17-1.3-.33-1.93-.53-.34-.11-.45,0-.53.31-.37,1.42-.75,2.84-1.17,4.25-.11.38,0,.47.33.55,1.06.28,2.12.59,3.18.86.37.09.41.23.3.55-.18.58-.32,1.17-.5,1.81"/><path class="cls-1" d="M85,6.61c.07.78.14,1.5.22,2.28l-1.63.2c-.43,0-.86.08-1.29.09s-.46.14-.42.47c.11,1,.2,2,.3,3s.22,2.1.32,3.15c.15,1.42.29,2.84.43,4.26.12,1.24.23,2.49.35,3.78-.94.09-1.87.2-2.8.27a.41.41,0,0,1-.32-.23c-.14-1.23-.25-2.46-.37-3.69l-.42-4.12c-.13-1.32-.26-2.64-.38-3.95-.07-.73-.13-1.45-.2-2.18,0-.3-.13-.42-.49-.37-.9.13-1.81.2-2.71.26-.08,0-.25-.14-.26-.23-.08-.59-.14-1.18-.18-1.78a.35.35,0,0,1,.22-.28c1.18-.14,2.36-.25,3.55-.37l4.21-.43c.61-.06,1.21-.1,1.87-.15"/><path class="cls-1" d="M125,15.49c-2.49,5.13-4.95,10.2-7.42,15.31l-2.82-1.37.92-1.89c2.09-4.32,4.19-8.63,6.26-12.95.19-.4.35-.45.73-.25.75.4,1.52.75,2.33,1.15"/><path class="cls-1" d="M96.61,7.11c-.2,2.32-.4,4.57-.59,6.82-.14,1.61-.25,3.23-.38,4.85s-.29,3.32-.46,5c0,.11-.15.29-.22.29-1-.07-1.92-.16-2.91-.25.14-1.57.28-3.08.41-4.59.1-1.23.19-2.46.29-3.69l.42-4.76c.1-1.18.21-2.37.29-3.56,0-.29.08-.36.4-.32.89.11,1.8.16,2.75.24"/><path class="cls-1" d="M117.85,80.08c-.11,1.41-.17,3-.34,4.55a3.14,3.14,0,0,1-2.65,2.83,6.57,6.57,0,0,1-4.15-.36,3,3,0,0,1-1.81-2.39,17.38,17.38,0,0,1-.29-2.38,33,33,0,0,1-.07-3.44c.06-1.22.24-2.42.42-3.63a2.71,2.71,0,0,1,1.89-2.19,6.7,6.7,0,0,1,4.63,0,3,3,0,0,1,2.1,2.78c.11,1.36.17,2.73.27,4.27"/><path class="cls-1" d="M80.53,59.37A38.06,38.06,0,0,1,84,54.06a4.09,4.09,0,0,0,.45-.56.72.72,0,0,1,.86-.36c.56.1,1.14.19,1.71.25a.36.36,0,0,1,.39.38c0,.1,0,.21,0,.31,0,1.88,0,3.76,0,5.64,0,.33-.09.47-.42.44-1.38-.11-2.76-.2-4.13-.33-.61-.06-1.2-.2-1.8-.31a4,4,0,0,1-.52-.15"/><path class="cls-1" d="M95.49,59.39c-.88.17-1.68.38-2.5.47-1.24.14-2.49.2-3.73.3-.36,0-.47-.09-.46-.45,0-2,0-3.91,0-5.86,0-.3.1-.42.4-.45.57,0,1.12-.17,1.68-.22a.72.72,0,0,1,.55.14A34.26,34.26,0,0,1,95.31,59c0,.1.1.21.18.4"/><path class="cls-1" d="M102,57.41c-1.64.53-3.22,1.05-4.8,1.55a.46.46,0,0,1-.4-.17c-1.33-2-2.65-4-4-6.14l1.68-.75c.08,0,.2,0,.29.08a28.82,28.82,0,0,1,7.08,5.17,1.6,1.6,0,0,1,.16.26"/><path class="cls-1" d="M83.3,52.63c-.09.17-.15.29-.22.4-1.23,1.87-2.48,3.74-3.7,5.63-.22.33-.4.44-.77.31l-3.93-1.32a5.8,5.8,0,0,1-.54-.25,3.2,3.2,0,0,1,.29-.36A33.12,33.12,0,0,1,81,52.18a1,1,0,0,1,1-.07c.41.2.84.34,1.3.52"/><path class="cls-1" d="M81.09,50A32,32,0,0,1,95,50a11.51,11.51,0,0,1-5.94,2,11.89,11.89,0,0,1-7.93-2"/><path class="cls-1" d="M69.75,55c1-.62,2-1.32,3-1.84,1.66-.82,3.39-1.51,5.1-2.24.3-.13.64-.17.94-.3.56-.25.88.12,1.28.44-.12.09-.22.18-.32.24a40.73,40.73,0,0,0-6.7,5.2.5.5,0,0,1-.66.13l-2.68-1.42V55"/><path class="cls-1" d="M106.39,55l-1.85,1c-.38.2-.78.56-1.14.53s-.64-.49-.94-.77a37.29,37.29,0,0,0-6.08-4.54c-.13-.07-.25-.15-.37-.23.4-.55.6-.62,1.17-.46a29.12,29.12,0,0,1,8.73,4.07c.15.1.28.21.48.37"/><path class="cls-1" d="M95.87,100.61c-.67,1.1-1.3,2.17-2,3.21s-1.32,1.83-2,2.76a.71.71,0,0,1-.8.31c-.56-.1-1.11-.17-1.67-.25-.3,0-.46-.15-.46-.51,0-1.76,0-3.52-.07-5.28,0-1.12,0-1.1,1.13-1.06a29,29,0,0,1,5.64.74.85.85,0,0,1,.2.08"/><path class="cls-1" d="M87.58,103.14c0,1,0,2,0,3,0,.33-.09.49-.42.53-.66.09-1.32.19-2,.27a.46.46,0,0,1-.32-.18,35.26,35.26,0,0,1-4-5.88c-.13-.25-.07-.36.19-.39l5-.64c.34,0,.69,0,1-.08s.5.07.49.46c0,1,0,2,0,3Z"/><path class="cls-1" d="M83.48,107.36c-.54.24-1.08.49-1.63.71a.44.44,0,0,1-.33,0,27.24,27.24,0,0,1-7.16-5.21.64.64,0,0,1-.06-.12,1.59,1.59,0,0,1,.27-.18c1.5-.53,3-1.06,4.51-1.56a.43.43,0,0,1,.39.14c1.33,2,2.64,4.07,4,6.11a.76.76,0,0,1,0,.16"/><path class="cls-1" d="M102.27,102.64c-1,.86-1.83,1.73-2.8,2.43-1.4,1-2.88,1.9-4.33,2.84a.65.65,0,0,1-.74,0c-.42-.21-.86-.38-1.35-.59l.35-.53c1.19-1.85,2.39-3.7,3.56-5.56a.51.51,0,0,1,.67-.29,24.08,24.08,0,0,1,4.64,1.67"/><path class="cls-1" d="M81.31,110c3.78-2.86,10.57-2.69,13.91,0a31.85,31.85,0,0,1-13.91,0"/><path class="cls-1" d="M106.58,105c-.65.44-1.29.91-2,1.31a32.33,32.33,0,0,1-7.32,3.16c-.53.16-.72-.27-1.1-.5a2.2,2.2,0,0,1,.31-.24,36.36,36.36,0,0,0,6.72-5.18.52.52,0,0,1,.73-.14c.87.48,1.75.94,2.62,1.41V105"/><path class="cls-1" d="M80.26,109a1.09,1.09,0,0,1-1.3.44,30.72,30.72,0,0,1-8.64-4.09l-.47-.35c.59-.35,1.13-.69,1.68-1s.86-.62,1.27-.58.71.51,1,.81a43.93,43.93,0,0,0,5.85,4.41l.56.36"/><path class="cls-1" d="M56.42,122.64c0,.43,0,.86,0,1.29,0,.59-.37.83-1.09.82s-1-.27-1-.83q0-1.29,0-2.58c0-.54.39-.83,1-.84s1,.25,1.08.8a2.48,2.48,0,0,1,0,.27v1.07Z"/><path class="cls-1" d="M98,124.73c0-1.07,0-2.15,0-3.22,0-.73.33-1,1.06-1s1,.29,1,1q0,3.23,0,6.44c0,.74-.31,1-1.06,1s-1-.27-1-1c0-1.07,0-2.15,0-3.22"/><path class="cls-1" d="M64.47,124.75v3.14c0,.75-.31,1.07-1,1.07s-1.12-.31-1.12-1.06q0-3.18,0-6.36c0-.71.4-1.05,1.15-1s1,.35,1,1.07v3.18"/><path class="cls-1" d="M72.45,124.73c0,1.07,0,2.15,0,3.22,0,.62-.27,1-.79,1-.82.09-1.17-.11-1.33-.77a1.67,1.67,0,0,1,0-.39V121.7c0-.8.33-1.18,1-1.2.84,0,1.16.29,1.17,1.14v3.09"/></g></g></svg>