<svg xmlns="http://www.w3.org/2000/svg" viewBox="0 0 16.94 86.29"><defs><style>.cls-1{fill:#3c3c3b;}</style></defs><g id="Layer_2" data-name="Layer 2"><g id="Layer_1-2" data-name="Layer 1"><path class="cls-1" d="M0,5.05A5.12,5.12,0,0,1,1,1.88,5.22,5.22,0,0,1,3.76,0l.81,2C2.85,2.48,2,3.51,2,5.05a2.59,2.59,0,0,0,.9,2.05,3.39,3.39,0,0,0,2.32.78H16.57V10H5.39A5.61,5.61,0,0,1,1.44,8.64,4.63,4.63,0,0,1,0,5.05"/><path class="cls-1" d="M8.47,28.6a8.2,8.2,0,0,1-6-2.4A8,8,0,0,1,0,20.26a8,8,0,0,1,2.45-5.93,8.2,8.2,0,0,1,6-2.4,8.2,8.2,0,0,1,6,2.4,8,8,0,0,1,2.45,5.93,8,8,0,0,1-2.47,5.94,8.2,8.2,0,0,1-6,2.4m0-14.54a6.41,6.41,0,0,0-4.64,1.77A5.92,5.92,0,0,0,2,20.26a5.86,5.86,0,0,0,1.84,4.42,6.32,6.32,0,0,0,4.64,1.79,6.35,6.35,0,0,0,4.64-1.79,5.89,5.89,0,0,0,1.83-4.42,5.94,5.94,0,0,0-1.83-4.43,6.41,6.41,0,0,0-4.64-1.77"/><rect class="cls-1" x="0.36" y="31.06" width="16.21" height="2.08"/><polygon class="cls-1" points="0.36 38.49 0.36 36.41 16.57 36.41 16.57 38.94 3.96 46.82 3.96 46.91 7.09 46.82 16.57 46.82 16.57 48.91 0.36 48.91 0.36 46.73 13.59 38.49 13.59 38.4 10.46 38.49 0.36 38.49"/><path class="cls-1" d="M0,62.33A5.66,5.66,0,0,1,1.77,58a6.4,6.4,0,0,1,4.62-1.66H16.57v2.09H6.29a4.49,4.49,0,0,0-3.14,1,4.14,4.14,0,0,0,0,5.75,4.54,4.54,0,0,0,3.14,1H16.57v2.08H6.39A6.5,6.5,0,0,1,1.72,66.7,5.71,5.71,0,0,1,0,62.33"/><path class="cls-1" d="M4.7,81.24a4.24,4.24,0,0,1-3.43-1.56A6,6,0,0,1,0,75.83a5.67,5.67,0,0,1,1.18-3.56,6.06,6.06,0,0,1,3.21-2.13l.82,2a5,5,0,0,0-1.32.56,4.37,4.37,0,0,0-1,.85,4,4,0,0,0-.66,1.08A3.26,3.26,0,0,0,2,75.87a3.62,3.62,0,0,0,.74,2.34,2.4,2.4,0,0,0,2,.9,2.32,2.32,0,0,0,1.74-.75,7,7,0,0,0,1.36-2.62c.47-1.3.78-2.11,1-2.43a4.17,4.17,0,0,1,3.87-2.58,4,4,0,0,1,3.06,1.43,5.24,5.24,0,0,1,1.27,3.55,5.45,5.45,0,0,1-1,3.22,4.37,4.37,0,0,1-2.33,1.81l-.81-1.95a2.9,2.9,0,0,0,1.5-1.07,3.5,3.5,0,0,0-.07-4,2,2,0,0,0-1.65-.84,1.89,1.89,0,0,0-1.44.66,11,11,0,0,0-1.44,3.15,8.1,8.1,0,0,1-2.06,3.52,4.39,4.39,0,0,1-3,1"/><path class="cls-1" d="M1.77,86.29a1.51,1.51,0,0,1-1.09-.44,1.56,1.56,0,0,1,0-2.19,1.48,1.48,0,0,1,1.09-.45,1.46,1.46,0,0,1,1.09.45,1.54,1.54,0,0,1-1.09,2.63m3.62-.73V83.93l6.07-.22h5.11v2.08H11.46Z"/></g></g></svg>