<svg xmlns="http://www.w3.org/2000/svg" viewBox="0 0 16.94 90.79"><defs><style>.cls-1{fill:#fafafa;}</style></defs><g id="Layer_2" data-name="Layer 2"><g id="Layer_1-2" data-name="Layer 1"><path class="cls-1" d="M0,5.37A5.62,5.62,0,0,1,1,2,5.41,5.41,0,0,1,3.92,0L5.07,2.81a3,3,0,0,0-1.63.95A2.45,2.45,0,0,0,2.9,5.37,2,2,0,0,0,3.58,7a2.81,2.81,0,0,0,1.9.59H16.57v3.05H5.5a6.14,6.14,0,0,1-2.39-.42A4.82,4.82,0,0,1,1.39,9.11a4.58,4.58,0,0,1-1-1.67A6.12,6.12,0,0,1,0,5.37"/><path class="cls-1" d="M0,21.1a8.46,8.46,0,0,1,.66-3.36,8,8,0,0,1,1.8-2.68,8.25,8.25,0,0,1,2.69-1.78,8.58,8.58,0,0,1,3.32-.65,8.58,8.58,0,0,1,3.32.65,8.23,8.23,0,0,1,4.49,4.46,8.88,8.88,0,0,1,0,6.72,8.2,8.2,0,0,1-4.49,4.47,8.58,8.58,0,0,1-3.32.64,8.58,8.58,0,0,1-3.32-.64,8.42,8.42,0,0,1-2.69-1.78,8,8,0,0,1-1.8-2.69A8.46,8.46,0,0,1,0,21.1m2.9,0a5.34,5.34,0,0,0,.41,2.12,5.14,5.14,0,0,0,1.13,1.72A5.2,5.2,0,0,0,6.19,26.1a6.21,6.21,0,0,0,2.28.41,6.12,6.12,0,0,0,2.27-.41,5.14,5.14,0,0,0,1.76-1.16,5.3,5.3,0,0,0,1.13-1.72,5.66,5.66,0,0,0,0-4.23,5.35,5.35,0,0,0-1.13-1.73,5.12,5.12,0,0,0-1.76-1.15,5.92,5.92,0,0,0-2.27-.42,6,6,0,0,0-2.28.42A5.1,5.1,0,0,0,3.31,19,5.29,5.29,0,0,0,2.9,21.1"/><rect class="cls-1" x="0.36" y="32.04" width="16.21" height="3.06"/><polygon class="cls-1" points="16.57 38.36 16.57 41.91 5.71 48.43 5.71 48.61 8.83 48.43 16.57 48.43 16.57 51.47 0.36 51.47 0.36 48.25 11.84 41.37 11.84 41.19 8.72 41.37 0.36 41.37 0.36 38.36 16.57 38.36"/><path class="cls-1" d="M0,65.19a7,7,0,0,1,.46-2.6,5.45,5.45,0,0,1,1.35-2A6.4,6.4,0,0,1,4,59.34a8.46,8.46,0,0,1,2.86-.45h9.76V62H6.63a5.37,5.37,0,0,0-1.49.2A3.48,3.48,0,0,0,4,62.76a2.93,2.93,0,0,0-.78,1,3.72,3.72,0,0,0,0,2.83,2.84,2.84,0,0,0,.78,1,3.31,3.31,0,0,0,1.18.61,5,5,0,0,0,1.49.21h9.94v3H6.81A8.17,8.17,0,0,1,4,71.06a5.93,5.93,0,0,1-2.15-1.27,5.63,5.63,0,0,1-1.39-2A6.64,6.64,0,0,1,0,65.19"/><path class="cls-1" d="M0,79.36a6.89,6.89,0,0,1,.29-2,5.67,5.67,0,0,1,.89-1.75,6.48,6.48,0,0,1,1.43-1.38,6.88,6.88,0,0,1,2-.92l1.13,2.87a4.37,4.37,0,0,0-2,1.11,2.81,2.81,0,0,0-.8,2.08A3.46,3.46,0,0,0,3,80.3a2.85,2.85,0,0,0,.36.79,1.78,1.78,0,0,0,.6.56,1.8,1.8,0,0,0,.84.2,2,2,0,0,0,.82-.16,1.91,1.91,0,0,0,.68-.53,4.94,4.94,0,0,0,.61-1,16,16,0,0,0,.61-1.49l.36-1a8.24,8.24,0,0,1,.61-1.33,6.09,6.09,0,0,1,.93-1.21,4.51,4.51,0,0,1,1.28-.89,3.74,3.74,0,0,1,1.66-.35,4.24,4.24,0,0,1,1.78.37,4.31,4.31,0,0,1,1.45,1.06,4.88,4.88,0,0,1,1,1.66,6.72,6.72,0,0,1,0,4.25,5.13,5.13,0,0,1-.84,1.52,4.6,4.6,0,0,1-1.12,1,5.55,5.55,0,0,1-1.16.56l-1.13-2.69a2.87,2.87,0,0,0,1.22-.83,2.31,2.31,0,0,0,.55-1.64,2.8,2.8,0,0,0-.47-1.65,1.42,1.42,0,0,0-1.21-.66,1.52,1.52,0,0,0-1.23.64,6.9,6.9,0,0,0-1,2l-.34,1a10.74,10.74,0,0,1-.78,1.78,5.59,5.59,0,0,1-1,1.38,4.32,4.32,0,0,1-1.39.88,4.78,4.78,0,0,1-1.8.31,4.43,4.43,0,0,1-2.19-.51,4.74,4.74,0,0,1-1.5-1.3,5.67,5.67,0,0,1-.89-1.79,7.15,7.15,0,0,1-.29-2"/><path class="cls-1" d="M.36,88.85a2,2,0,0,1,2-2,1.85,1.85,0,0,1,1.38.57,1.92,1.92,0,0,1,.57,1.4,1.88,1.88,0,0,1-.57,1.38,1.84,1.84,0,0,1-1.38.56,1.91,1.91,0,0,1-1.39-.56,1.89,1.89,0,0,1-.58-1.38m11.55-1.54h4.66v3H11.91l-6-.31V87.62Z"/></g></g></svg>