<svg xmlns="http://www.w3.org/2000/svg" viewBox="0 0 183.38 107.32"><defs><style>.cls-1,.cls-4{fill:#1d1d1b;}.cls-2{fill:#fff;}.cls-3{fill:#a40f0a;}.cls-3,.cls-4{fill-rule:evenodd;}</style></defs><g id="Layer_2" data-name="Layer 2"><g id="Layer_1-2" data-name="Layer 1"><path class="cls-1" d="M174.74,33.4a2.75,2.75,0,0,1,1.34.36,2.58,2.58,0,0,1,1,1,2.81,2.81,0,0,1,.36,1.37,2.73,2.73,0,0,1-.36,1.35,2.56,2.56,0,0,1-1,1,2.8,2.8,0,0,1-1.36.36,2.73,2.73,0,0,1-1.35-.36,2.52,2.52,0,0,1-1-1,2.73,2.73,0,0,1-.36-1.35,2.81,2.81,0,0,1,.36-1.37,2.58,2.58,0,0,1,1-1,2.75,2.75,0,0,1,1.34-.36m0,.61a2.18,2.18,0,0,0-1,.27,1.91,1.91,0,0,0-.79.78,2.11,2.11,0,0,0,0,2.12,2,2,0,0,0,.79.79,2.2,2.2,0,0,0,1.05.28A2.24,2.24,0,0,0,175.8,38a2,2,0,0,0,.78-.79,2.12,2.12,0,0,0,.28-1,2.31,2.31,0,0,0-.28-1.07,1.94,1.94,0,0,0-.8-.78,2.18,2.18,0,0,0-1-.27"/><path class="cls-1" d="M174.25,36h.46a.8.8,0,0,0,.45-.09.34.34,0,0,0,.12-.26.33.33,0,0,0-.06-.19.34.34,0,0,0-.16-.12,1.06,1.06,0,0,0-.38,0h-.43Zm-.37,1.32V35h.8a1.73,1.73,0,0,1,.6.07.53.53,0,0,1,.29.22.56.56,0,0,1,.11.35.6.6,0,0,1-.18.44.75.75,0,0,1-.49.22.56.56,0,0,1,.2.12,2.67,2.67,0,0,1,.35.46l.28.46h-.46l-.21-.37a1.76,1.76,0,0,0-.39-.54.45.45,0,0,0-.3-.08h-.23v1Z"/><path class="cls-1" d="M183.38,61.85h-.69v-.8h.69Zm-2.69-2.28-.78-3.06-.77,3.06ZM182,61.85h-.66l-.44-1.69H179l-.42,1.69h-.67L179.5,56h.82Zm-4.79,0h-.69v-.8h.69Zm-1.71-1.64A1.77,1.77,0,0,1,175,61.5a1.68,1.68,0,0,1-1.27.48,1.47,1.47,0,0,1-1.28-.57,2.37,2.37,0,0,1-.36-1.41h.64l0,.19a1.43,1.43,0,0,0,.25.85,1,1,0,0,0,.78.37,1.09,1.09,0,0,0,.79-.3,1.06,1.06,0,0,0,.31-.78,1.12,1.12,0,0,0-.68-1l-1.28-.56a1.33,1.33,0,0,1-.69-1.22,1.73,1.73,0,0,1,.42-1.21,1.52,1.52,0,0,1,1.17-.45,1.42,1.42,0,0,1,1.14.43,1.82,1.82,0,0,1,.38,1.22h-.61a1.24,1.24,0,0,0-.24-.77.84.84,0,0,0-.69-.31,1,1,0,0,0-.7.26.94.94,0,0,0-.27.7,1,1,0,0,0,.69,1l1.3.51a1.4,1.4,0,0,1,.69,1.3"/><path class="cls-2" d="M121.56,76.82c-27.74,25.12-63.72,35.1-80.36,22.31S33.56,55.6,61.3,30.49,125-4.61,141.66,8.19s7.64,43.52-20.1,68.63m1.76,2c-14.18,12.83-30.49,21.81-45.4,26C62.6,109,48.61,108.14,39.6,101.2a23.81,23.81,0,0,1-3.13-2.88c-5.62-6.21-7.35-14.85-5.58-24.59,1.7-9.35,6.66-19.75,14.49-29.94A116.44,116.44,0,0,1,59.54,28.55C73.72,15.71,90,6.73,104.94,2.6c15.32-4.26,29.31-3.42,38.32,3.51A23.88,23.88,0,0,1,146.39,9c5.62,6.21,7.35,14.85,5.58,24.59-1.7,9.34-6.66,19.75-14.49,29.94a116.44,116.44,0,0,1-14.16,15.24"/><path class="cls-3" d="M121.56,76.82c-27.74,25.12-63.72,35.1-80.36,22.31S33.56,55.6,61.3,30.49,125-4.61,141.66,8.19s7.64,43.52-20.1,68.63"/><path class="cls-2" d="M138.46,41.57v.12c-.06.86-.11,1.55-.16,2.24-.09,1.17-.18,2.34-.25,3.4-.09,1.41-.19,2.71-.29,4s-.19,2.55-.27,3.78l.47.15a2.52,2.52,0,0,1,.33.14c.05-.44.09-.86.12-1.27.15-1.94.3-3.75.45-5.56.19-2.2.37-4.4.52-6.53a5,5,0,0,1-.91-.49M152,44.65l-.44,6a5.86,5.86,0,0,1,.57-.66,4.79,4.79,0,0,1,1.47-.92L154,49a18.53,18.53,0,0,1-1.61-3.21c-.13-.36-.25-.72-.35-1.09M115.21,55.09c.18-2.74.4-5.42.61-8.1.14-1.72.27-3.43.39-5.05l-.36-.15,0,.17c0,.53-.11,1-.15,1.6-.07.91-.13,1.77-.2,2.59s-.14,1.73-.2,2.59-.13,1.62-.19,2.33c-.08,1-.15,2-.22,2.85,0,.21-.06.6-.1,1l.44.13M32.42,64.84h-.14c-.51,0-1,0-1.45,0l-.53,0-1.72-.14c-.87-.07-1.54-.12-2.15-.14a20,20,0,0,0-2.13,0l-1.57.1-.79.05h-.09a5,5,0,0,1-3.9-.84,4,4,0,0,1-1.63-3.49,8.52,8.52,0,0,1-6,4.11,7.6,7.6,0,0,1-1.07.1,9,9,0,0,1-5.94-2.11A9,9,0,0,1,.11,57.05,9.46,9.46,0,0,1,0,56,7.26,7.26,0,0,1,1.18,51.6a6.12,6.12,0,0,1,3-2.34A6.77,6.77,0,0,1,8,49a7.74,7.74,0,0,1,3.5,1.87l.14-.7Q12.35,47,13,43.85c.53-2.44,1-4.62,1.37-6.35v0c.36-1.68.69-3.23.93-4.29s.5-2.32,1-4.34c.11-.48.21-1,.32-1.46s.26-1.13.33-1.47c0,0,0-.11.06-.25A7.47,7.47,0,0,1,17.47,24a3,3,0,0,1,1.05-1.17h0A3,3,0,0,1,20,22.42l7.56-.17a2.91,2.91,0,0,1,2.06.77l.05.05a3,3,0,0,1,.9,1.93l1.75,27.17c0-.33,0-.66.08-1a30.61,30.61,0,0,1,3.09-11.74,11.59,11.59,0,0,1,6.72-5.93A14.24,14.24,0,0,1,44,33.1a7,7,0,0,1,1.88-.1l.33,0h0l.27-.07a3.38,3.38,0,0,1,.58-.08,8.67,8.67,0,0,1,.89,0c.3,0,.59.06.89.11a5.28,5.28,0,0,0,1.52-.07l.11,0h0l.67-.12c.24,0,.45-.09.64-.14l.63-.19a8.61,8.61,0,0,1,1-.3,3,3,0,0,1,1.34,0,3,3,0,0,1,2,1.72,2.7,2.7,0,0,1,.18.57c.33-.14.67-.26,1-.38l.62-.23.07,0a27.35,27.35,0,0,1,2.68-1,10.53,10.53,0,0,1,2.77-.44,6.66,6.66,0,0,1,1.68.18A6.61,6.61,0,0,1,67.2,31a5.32,5.32,0,0,1,2.53-1.16,6.42,6.42,0,0,1,1.73-.08,4.48,4.48,0,0,1,3.09,1.56,6.2,6.2,0,0,1,1.36,3.07,10,10,0,0,1,.13,2A16.15,16.15,0,0,1,78.18,35a14,14,0,0,1,2-.86A5,5,0,0,1,81.82,33l.05,0a6.13,6.13,0,0,1,2.26-.54,10.51,10.51,0,0,1,5.31,1A7.67,7.67,0,0,1,92.25,36a3.35,3.35,0,0,1,.51-.42,6.71,6.71,0,0,1,1-.61l.8-.41a14.63,14.63,0,0,1,5.26-1.89,6.53,6.53,0,0,1,4.08.69A4.91,4.91,0,0,1,105.68,35a8.39,8.39,0,0,1,1.1-1,6.29,6.29,0,0,1,2.69-1.19,5.77,5.77,0,0,1,4,.68,5.26,5.26,0,0,1,1.79,1.78,9.4,9.4,0,0,1,2.9-1.41l.75-.27h0l.28-.11a10.54,10.54,0,0,1,4.83-1,5.57,5.57,0,0,1,2.18.55,5.19,5.19,0,0,1,1.14.74,3,3,0,0,1,.88-.37,5.62,5.62,0,0,1,2.12,0l.63.06a8.69,8.69,0,0,0,1.69-.16h0a18.29,18.29,0,0,0,2.26-.5,3,3,0,0,1,1.24-.13,2.89,2.89,0,0,1,1.18.42,2.85,2.85,0,0,1,.91.85h0a3,3,0,0,1,.46,1.17,1.57,1.57,0,0,1,0,.23,3.6,3.6,0,0,1,.9-.45l.22-.07.22-3.81a4.34,4.34,0,0,1,.16-1.22,3.28,3.28,0,0,1,1-1.66,3,3,0,0,1,1.85-.7,3.25,3.25,0,0,1,1,.11c.26,0,.48,0,.7.06s.47.06.68.07a14.91,14.91,0,0,0,3.43-.58l.6-.15a2.88,2.88,0,0,1,1.37,0,2.9,2.9,0,0,1,2.24,3.1v0l-.38,4.85a4.41,4.41,0,0,1,.94.49,2.88,2.88,0,0,1,.34.27c.25-.29.52-.57.82-.86a8.82,8.82,0,0,1,2.53-1.73,7.07,7.07,0,0,1,2.82-.61h0l.51,0a5.85,5.85,0,0,1,1-.84,6,6,0,0,1,1.71-.72,4.16,4.16,0,0,1,.69-.12,5.12,5.12,0,0,1,.69,0,6.44,6.44,0,0,1,1.6.23,7.33,7.33,0,0,1,4.06,3.11A9,9,0,0,1,172,39.06a7.51,7.51,0,0,1-.26,1.9,6,6,0,0,1-1.53,2.69,4.92,4.92,0,0,1-2.47,1.3l.59.81h0l0,0,0,0c.16.24.36.5.56.76l0,0a10.51,10.51,0,0,1,1.16,1.78,11.46,11.46,0,0,1,.93,7.92,11.16,11.16,0,0,1-2.1,4.27,10.63,10.63,0,0,1-11.13,3.76A10.17,10.17,0,0,1,154.64,63a9,9,0,0,1-1.77-1.54,4.4,4.4,0,0,1-1.08.61l-.44.2-.89.45-.88.44-.22.12A9.29,9.29,0,0,1,144,64.68a6.65,6.65,0,0,1-3.83-1.23,5.17,5.17,0,0,1-1.43-1.68A10.72,10.72,0,0,1,137,62.92a19.23,19.23,0,0,1-4.66,1.76,7.82,7.82,0,0,1-4.92-.34,4.88,4.88,0,0,1-2.13-2,7.36,7.36,0,0,1-3.88,2.36,5.85,5.85,0,0,1-2.28,0,5,5,0,0,1-2.07-.9A5.08,5.08,0,0,1,115.59,62c-.2.14-.42.27-.66.41h0l-.76.44-.77.45h0a15,15,0,0,1-2.21,1.13,8.69,8.69,0,0,1-2.58.58,7.74,7.74,0,0,1-3.12-.32,5.31,5.31,0,0,1-1.61-.86l-.09.07a2.76,2.76,0,0,1-1.13.6,3.67,3.67,0,0,1-1.2.08c-.55,0-1,0-1.5-.09a15.4,15.4,0,0,0-1.76-.08c-.5,0-1,.09-1.5.15a16.74,16.74,0,0,1-1.91.17,2.93,2.93,0,0,1-2.83-2,2.73,2.73,0,0,1-.15-1.21l.63-7.45c-.24.62-.51,1.25-.84,1.91a18.5,18.5,0,0,1-2.94,4.26,14.5,14.5,0,0,1-3.79,2.95A14,14,0,0,1,82,64.36a12.62,12.62,0,0,1-3,.4,9.7,9.7,0,0,1-3.42-.48,7.21,7.21,0,0,1-2.91-2,10.11,10.11,0,0,1-2.29-4.8A22.55,22.55,0,0,1,70,50.74a36.74,36.74,0,0,1,.64-4.06c.13-.56.26-1.12.42-1.67a4.7,4.7,0,0,1-1.81.11h-.08c-.07.87-.12,1.72-.18,2.54-.07,1.18-.15,2.35-.22,3.53,0,.68-.09,1.37-.14,2.06-.18,2.95-.37,5.91-.51,8.79a3,3,0,0,1-3,2.81,6.7,6.7,0,0,1-1.3-.16c-.22,0-.44-.08-.65-.1h0a16.35,16.35,0,0,0-4.26.18l-.37,0a2.74,2.74,0,0,1-.7,0,2.82,2.82,0,0,1-.64-.14,2.89,2.89,0,0,1-1.58-1.17,3,3,0,0,1-.51-1.92v-.1h0v-.14l1.5-19.2-.22-.07c-.11,1.07-.21,2.17-.33,3.57-.15,1.77-.41,4.66-.67,7.56l-.24,2.72a31.2,31.2,0,0,1-.74,5.21,16.82,16.82,0,0,1-5.08,8.06,10.45,10.45,0,0,1-5.21,2.35,4.19,4.19,0,0,1-1.79-.14,7.55,7.55,0,0,1-3.1.47,8.56,8.56,0,0,1-3.5-1,6.52,6.52,0,0,1-1.86-1.44,5.87,5.87,0,0,1-1.16-2.1,7.1,7.1,0,0,1-.33-2c0-.17,0-.34,0-.51"/><path class="cls-4" d="M22.11,59.09a1,1,0,0,1,.07.66H22a11,11,0,0,0-2.21.22c-.76.31-.54,1.14,0,1.51a2.83,2.83,0,0,0,2,.25l2.36-.15a21.17,21.17,0,0,1,4.71.09l2.23.18c.7,0,1.87.22,2.12-.34a1,1,0,0,0-.7-1.31,13.22,13.22,0,0,0-2-.13c-.63,0-.63-.14-.62-.82L27.67,25.19l-7.57.17c-.21.42-5.21,23.84-5.55,25.45a38.29,38.29,0,0,1-1,4.16c-.3.88-1.16,3.21-1.93,3.15-.19-2.36-.5-3.26-1.69-4.63-2.44-2.82-7.11-2.12-7,2.4a6.23,6.23,0,0,0,6.91,5.67c5-.83,6-7.86,7.08-12.06h4.63Zm16.18,3.74c-2.07.26-3.47,1.34-2.74,3.66a2.93,2.93,0,0,0,1.59,1.82c1.44.78,4,1,5.23-.39a2.8,2.8,0,0,0,.34-2.74A2.94,2.94,0,0,0,41,63.48a6.24,6.24,0,0,0-2.7-.65m125.86-29c-2,.5-2.56,3-1.66,5.18.56,1.35,2.43,3.46,4.51,3.09a2.32,2.32,0,0,0,1.87-1.92c.92-3.27-2.05-7-4.72-6.35m-3.9,26.33a20.36,20.36,0,0,0-.06-3.57,7.72,7.72,0,0,0-1.06-2.74,5.66,5.66,0,0,0-1.91-1.89,3,3,0,0,0-3.05.21c-1.5,1.41-1.4,7.93,4.35,9.35a8.08,8.08,0,0,0,9-11.76,18.31,18.31,0,0,0-1.56-2.25l-2.44-3.34c-.73-1.1-2.35-3.17-3.22-4.38a3.77,3.77,0,0,1-.57-1.33c-.29-1.65,1.43-1.27,2-1.85.84-.91-2-2.23-4.73.37-6.07,5.85,1.16,12.58,4.91,17.21a9.89,9.89,0,0,1,1.47,2.4c.35.89.72,2.41,0,3a4.57,4.57,0,0,1-3,.55M58.07,61.59c0,.39-.06.22.09.3a18.92,18.92,0,0,1,5.33-.25c.5.06,1.22.25,1.64.25.1-2,1.27-21.63,1.48-22,.64.15,1,1.51,1.61,1.87a5.23,5.23,0,0,0,1.36.38c2,.26,3.26-3.06,3.49-5.46.2-2.21-.29-4.48-2.83-4-1.72.3-2.64,2.27-2.9,4.25l-.79-.08c-1.07-2.71-4.88-1.06-6.9-.24a11.85,11.85,0,0,0-2.48,1.09c-.75.95,0,2,1.07,1.53.54-.22,1.09-.51,1.64-.73Zm85-30.51-.37,6.55c-1.13.1-2.45-.33-2.7.8-.28,1.31,1.57,1,2.5,1-.26,4.78-.78,10-1.15,14.9a35.91,35.91,0,0,0-.29,5.08c.22,1.55,1.32,2.24,3,2.29a7,7,0,0,0,4.18-1.21l1.77-.89c.67-.33,1.39-.41,1.4-1.32s-1.07-.73-1.66-.38A16.53,16.53,0,0,1,148,59l1.45-19.58c.95,0,2.79.31,2.81-.82,0-1.31-1.51-1-2.65-1l.61-7.71a20.49,20.49,0,0,1-4.85.8,17,17,0,0,0-1.75-.13c-.55-.26-.6,0-.57.58M84,37.23c-.26,6-.88,12.71-1.29,18.83,0,.5-.07,2.75-.34,3a2.79,2.79,0,0,1-2.42.63l1.65-22.9a11.39,11.39,0,0,0-3.85,1.92,8.87,8.87,0,0,0-2.5,3.19A28.39,28.39,0,0,0,72.9,51c-.3,3.1.1,7.4,1.85,9.26,1.07,1.13,2,1.55,4.17,1.54a10.07,10.07,0,0,0,4.57-1.21A13.48,13.48,0,0,0,89,54.68c1.57-3.13,1.71-5.56,2.11-9.36a13.92,13.92,0,0,0-.21-5.19c-.94-3.58-3-4.89-6.63-4.76-1.93.06-2.55,1.43-1.56,1.78a5,5,0,0,0,1.35.08m17.59,24.41c.37,0,.17,0,.35,0-.06-.53.21-4.59.25-5.47a41.84,41.84,0,0,1,.47-5.42c.44-2.42,2-6.55,3.59-8.05,0,1.46-.24,3-.35,4.52l-.72,9c-.08,1-.46,3.61-.15,4.43.46,1.23,1.71,1.61,3.3,1.47a7.21,7.21,0,0,0,3.56-1.32l1.54-.9c.56-.32,1.13-.49,1.09-1.31-.09-1.71-2.31.06-3,.3,0-1.66.26-3.49.4-5.17s.27-3.45.41-5.17.27-3.45.4-5.17a45,45,0,0,0,.35-5.23A2.48,2.48,0,0,0,110,35.78c-2.37.42-4.19,4-5.19,6-.3.6-1.81,3.36-1.89,3.74,0,.11,0,.1-.08.16s-.24.11,0-.24c0-.81.59-5.18.72-6.36.3-2.58-.73-3.84-3.32-3.54a15.31,15.31,0,0,0-5.06,2,2.46,2.46,0,0,0-1,.72.89.89,0,0,0,0,1.26c.52.46,2-.49,2.59-.68L94.75,61.8c1,0,2.22-.28,3.33-.32,1.27-.06,2.4.17,3.54.16m17.62-23.1.24-.09-.14.61a18.78,18.78,0,0,1-.14,2.45c-.41,5.6-1,11.64-1.26,17.13-.25,4.42,3.63,3.79,5.4,1.46.19-.25.38-.47.58-.73s.38-.44.57-.71c.38-.52.74-1,1.11-1.55L127.79,54l.06.28c0,1-.51,4.86-.35,5.59.44,2,2,2.36,4.24,1.89,1.18-.25,4.93-1.67,5.43-2.64A.81.81,0,0,0,136.9,58c-.62-.23-2,.5-2.57.67.15-3.8.52-7.75.77-11.56.1-1.46.83-10.92.73-11.51a20.18,20.18,0,0,1-5.06.8,10.06,10.06,0,0,0-1.85-.11c-.33,6.87-.15,14.17-3.69,19.09-.06-.75.8-11.56.93-13.27a25.78,25.78,0,0,0,.19-4.42,2.62,2.62,0,0,0-2.5-2.24,8.69,8.69,0,0,0-3.89.93c-1,.37-2.71.83-3.16,1.56a.76.76,0,0,0,.66,1.2,12,12,0,0,0,1.78-.63m-72.08-2.7c-.75,8,.11,13-4.25,18.74L44.29,37.8l.72-.24.72-.18c.73-.22,1.68-2.35-2.62-1-5.53,1.69-7.29,9.71-7.73,15.08-.19,2.32-.35,4.66-.56,7-.23,2.57,1.62,3.86,4,3s4-3.94,5.43-6l1.56-2.24-1.1,13.3a9.43,9.43,0,0,1-1.16.71c-.42.29-.8.48-.67,1.24.53.49,1.57.08,2.23-.14a9.56,9.56,0,0,0,4.55-3.88c2-2.93,2.18-4.64,2.54-8.72.3-3.42.61-6.85.9-10.27s.69-6.91.91-10.33c-.45.09-1,.33-1.51.46s-1.11.24-1.66.32c-2.66.37-2.19-.06-3.72,0M20.36,34l.15-.34,0,.36.95,13.62H17.41Z"/></g></g></svg>