<svg xmlns="http://www.w3.org/2000/svg" viewBox="0 0 183.38 102.08"><defs><style>.cls-1,.cls-4{fill:#1d1d1b;}.cls-2{fill:#a40f0a;}.cls-2,.cls-4{fill-rule:evenodd;}.cls-3{fill:#fff;}</style></defs><g id="Layer_2" data-name="Layer 2"><g id="Layer_1-2" data-name="Layer 1"><path class="cls-1" d="M174.74,30.79a2.74,2.74,0,0,1,1.34.35,2.54,2.54,0,0,1,1,1,2.77,2.77,0,0,1,.36,1.36,2.73,2.73,0,0,1-.36,1.35,2.49,2.49,0,0,1-1,1,2.8,2.8,0,0,1-1.36.36,2.73,2.73,0,0,1-1.35-.36,2.46,2.46,0,0,1-1-1,2.73,2.73,0,0,1-.36-1.35,2.77,2.77,0,0,1,.36-1.36,2.54,2.54,0,0,1,1-1,2.74,2.74,0,0,1,1.34-.35m0,.6a2.18,2.18,0,0,0-1,.27,2,2,0,0,0-.79.79,2,2,0,0,0-.29,1.06,2.07,2.07,0,0,0,.28,1.05,2,2,0,0,0,.79.79,2.09,2.09,0,0,0,1.05.28,2.13,2.13,0,0,0,1.06-.28,2,2,0,0,0,.78-.79,2.07,2.07,0,0,0,.28-1.05,2.24,2.24,0,0,0-.28-1.06,2,2,0,0,0-.8-.79,2.18,2.18,0,0,0-1-.27"/><path class="cls-1" d="M183.38,59.23h-.69v-.8h.69ZM180.69,57l-.78-3.06L179.14,57ZM182,59.23h-.66l-.44-1.69H179l-.42,1.69h-.67l1.6-5.85h.82Zm-4.79,0h-.69v-.8h.69Zm-1.71-1.64a1.74,1.74,0,0,1-.47,1.29,1.69,1.69,0,0,1-1.27.49,1.47,1.47,0,0,1-1.28-.57,2.42,2.42,0,0,1-.36-1.42h.64l0,.19a1.41,1.41,0,0,0,.25.85.92.92,0,0,0,.78.37,1.09,1.09,0,0,0,.79-.3,1.06,1.06,0,0,0,.31-.78,1.1,1.1,0,0,0-.68-1l-1.28-.57a1.33,1.33,0,0,1-.69-1.22,1.69,1.69,0,0,1,.42-1.2,1.49,1.49,0,0,1,1.17-.46,1.43,1.43,0,0,1,1.14.44,1.79,1.79,0,0,1,.38,1.21h-.61a1.19,1.19,0,0,0-.24-.76.85.85,0,0,0-.69-.32.94.94,0,0,0-.7.27.93.93,0,0,0-.27.7,1,1,0,0,0,.69,1l1.3.51a1.41,1.41,0,0,1,.69,1.3"/><path class="cls-2" d="M121.56,74.21C93.82,99.32,57.84,109.3,41.2,96.51S33.56,53,61.3,27.87,125-7.22,141.66,5.57s7.64,43.52-20.1,68.64"/><path class="cls-3" d="M138.46,39v.13c-.06.85-.11,1.54-.16,2.23-.09,1.17-.18,2.34-.25,3.4-.09,1.41-.19,2.72-.29,4s-.19,2.56-.27,3.78l.47.15a1.66,1.66,0,0,1,.33.15c.05-.44.09-.87.12-1.28.15-1.93.3-3.74.45-5.56.19-2.2.37-4.4.52-6.53a4.43,4.43,0,0,1-.91-.49M152,42l-.44,6a5,5,0,0,1,.57-.65,4.82,4.82,0,0,1,1.47-.93l.36-.13a18.18,18.18,0,0,1-1.61-3.21c-.13-.36-.25-.72-.35-1.08M115.21,52.48c.18-2.74.4-5.43.61-8.11.14-1.72.27-3.43.39-5l-.36-.14,0,.16c0,.53-.11,1.06-.15,1.6-.07.92-.13,1.77-.2,2.6s-.14,1.72-.2,2.59-.13,1.61-.19,2.32c-.08,1-.15,2-.22,2.85,0,.21-.06.6-.1,1.05a2.23,2.23,0,0,1,.44.13M32.42,62.23h-.14a11.38,11.38,0,0,1-1.45,0l-.53,0L28.58,62c-.87-.07-1.54-.13-2.15-.15s-1.29,0-2.13,0L22.73,62l-.79,0h-.09a5,5,0,0,1-3.9-.83,4,4,0,0,1-1.34-1.72,3.89,3.89,0,0,1-.29-1.77,8.51,8.51,0,0,1-6,4.1A7.61,7.61,0,0,1,9.28,62a9.06,9.06,0,0,1-5.94-2.11A8.66,8.66,0,0,1,0,53.36,7.28,7.28,0,0,1,1.18,49a6.24,6.24,0,0,1,3-2.34A6.77,6.77,0,0,1,8,46.42a7.55,7.55,0,0,1,3.5,1.87c.06-.32.12-.61.14-.71.46-2.12.91-4.23,1.36-6.35.53-2.44,1-4.62,1.37-6.35v0c.36-1.68.69-3.22.93-4.29s.5-2.32,1-4.33c.11-.49.21-1,.32-1.47s.26-1.13.33-1.46c0-.06,0-.11.06-.26a7.22,7.22,0,0,1,.48-1.6,2.94,2.94,0,0,1,1.05-1.18h0A2.91,2.91,0,0,1,20,19.8l7.56-.17a3,3,0,0,1,2.06.77l.05.06a3,3,0,0,1,.9,1.93l1.75,27.17c0-.34,0-.66.08-1a30.66,30.66,0,0,1,3.09-11.74,11.62,11.62,0,0,1,6.72-5.93A16.42,16.42,0,0,1,44,30.48a7,7,0,0,1,1.88-.1l.33,0h0l.27-.08a2.63,2.63,0,0,1,.58-.07,6.53,6.53,0,0,1,.89,0,6.76,6.76,0,0,1,.89.11,5.69,5.69,0,0,0,1.52-.08l.11,0h0l.67-.11.64-.14c.19-.05.41-.13.63-.2a8.61,8.61,0,0,1,1-.3,2.88,2.88,0,0,1,2.53.67,2.85,2.85,0,0,1,.79,1.08,3,3,0,0,1,.18.58c.33-.15.67-.27,1-.39l.62-.23.07,0c.87-.35,1.74-.69,2.68-1a10.53,10.53,0,0,1,2.77-.44,7.15,7.15,0,0,1,1.68.18,6.61,6.61,0,0,1,1.45-1.67,5.42,5.42,0,0,1,2.53-1.16,6.42,6.42,0,0,1,1.73-.08,4.48,4.48,0,0,1,3.09,1.56,6.24,6.24,0,0,1,1.36,3.07,10,10,0,0,1,.13,2,15.17,15.17,0,0,1,2.14-1.34,13.05,13.05,0,0,1,2-.87,5,5,0,0,1,1.61-1.14l.05,0a6.13,6.13,0,0,1,2.26-.54,10.4,10.4,0,0,1,5.31,1,7.64,7.64,0,0,1,2.81,2.53,3.35,3.35,0,0,1,.51-.42,8.77,8.77,0,0,1,1-.61l.8-.41A14.63,14.63,0,0,1,99.87,30a6.6,6.6,0,0,1,4.08.69,4.91,4.91,0,0,1,1.73,1.69,9.2,9.2,0,0,1,1.1-1,6.41,6.41,0,0,1,2.69-1.19,5.83,5.83,0,0,1,4,.68,5.2,5.2,0,0,1,1.79,1.79,9.66,9.66,0,0,1,2.9-1.42c.28-.09.56-.19.75-.27h0l.28-.11a10.54,10.54,0,0,1,4.83-1,5.57,5.57,0,0,1,2.18.55,5.19,5.19,0,0,1,1.14.74,3.28,3.28,0,0,1,.88-.37,5.62,5.62,0,0,1,2.12,0l.63.07a9.78,9.78,0,0,0,1.69-.17h0a20,20,0,0,0,2.26-.51,3.13,3.13,0,0,1,1.24-.13,3,3,0,0,1,2.09,1.28h0a2.89,2.89,0,0,1,.46,1.16,1.57,1.57,0,0,1,0,.23,4,4,0,0,1,.9-.45l.22-.07.22-3.8a4.41,4.41,0,0,1,.16-1.23,3.32,3.32,0,0,1,1-1.66,3,3,0,0,1,1.85-.7,3.61,3.61,0,0,1,1,.11l.7.07.68.06a13.9,13.9,0,0,0,3.43-.58l.6-.15a3,3,0,0,1,1.37,0,3.08,3.08,0,0,1,2,1.75,2.93,2.93,0,0,1,.2,1.35v0l-.38,4.85a4,4,0,0,1,.94.48c.12.08.23.18.34.27a10.84,10.84,0,0,1,.82-.85,8.62,8.62,0,0,1,2.53-1.73,6.91,6.91,0,0,1,2.82-.62h0l.51,0a5.07,5.07,0,0,1,1-.84,5.47,5.47,0,0,1,1.71-.72,5.58,5.58,0,0,1,.69-.13,5.16,5.16,0,0,1,.69,0,6,6,0,0,1,1.6.22,7.35,7.35,0,0,1,4.06,3.12A9,9,0,0,1,172,36.45a7.49,7.49,0,0,1-.26,1.89,6,6,0,0,1-1.53,2.7,5,5,0,0,1-2.47,1.29l.59.81h0l0,0,0,.05c.16.24.36.5.56.76l0,.05a10.6,10.6,0,0,1,1.16,1.79,11.43,11.43,0,0,1,.93,7.91,11.16,11.16,0,0,1-2.1,4.27,10.63,10.63,0,0,1-11.13,3.76,10.17,10.17,0,0,1-3.17-1.38,9,9,0,0,1-1.77-1.54,4.81,4.81,0,0,1-1.08.62,4.48,4.48,0,0,0-.44.2l-.89.44-.88.45-.22.11A9.21,9.21,0,0,1,144,62.06a6.58,6.58,0,0,1-3.83-1.23,5.06,5.06,0,0,1-1.43-1.68A10.1,10.1,0,0,1,137,60.3a19.31,19.31,0,0,1-4.66,1.77,7.75,7.75,0,0,1-4.92-.35,4.83,4.83,0,0,1-2.13-2,7.3,7.3,0,0,1-3.88,2.36,5.85,5.85,0,0,1-2.28,0,5,5,0,0,1-2.07-.91,5.08,5.08,0,0,1-1.48-1.85c-.2.14-.42.27-.66.41h0l-.76.44-.77.46h0a17.2,17.2,0,0,1-2.21,1.13,9,9,0,0,1-2.58.57,7.57,7.57,0,0,1-3.12-.32,5.31,5.31,0,0,1-1.61-.86l-.09.07a2.76,2.76,0,0,1-1.13.6,3.41,3.41,0,0,1-1.2.08c-.55,0-1,0-1.5-.09a15.4,15.4,0,0,0-1.76-.08c-.5,0-1,.09-1.5.15a14.74,14.74,0,0,1-1.91.17,2.83,2.83,0,0,1-2.2-.93,2.84,2.84,0,0,1-.63-1,2.73,2.73,0,0,1-.15-1.21l.63-7.44c-.24.61-.51,1.25-.84,1.9a18.77,18.77,0,0,1-2.94,4.27,14.46,14.46,0,0,1-3.79,2.94A13.51,13.51,0,0,1,82,61.74a12.14,12.14,0,0,1-3,.41,9.7,9.7,0,0,1-3.42-.48,7.41,7.41,0,0,1-2.91-2,10.19,10.19,0,0,1-2.29-4.81A22.55,22.55,0,0,1,70,48.12a37.11,37.11,0,0,1,.64-4.06c.13-.56.26-1.11.42-1.67a4.7,4.7,0,0,1-1.81.11h-.08c-.07.88-.12,1.72-.18,2.55-.07,1.17-.15,2.35-.22,3.52,0,.69-.09,1.37-.14,2.06-.18,3-.37,5.92-.51,8.79a2.94,2.94,0,0,1-3,2.81,7.59,7.59,0,0,1-1.3-.15,5.19,5.19,0,0,0-.65-.11h0a16.35,16.35,0,0,0-4.26.18l-.37,0a3.3,3.3,0,0,1-.7,0,2.84,2.84,0,0,1-.64-.15,2.87,2.87,0,0,1-1.58-1.16A3,3,0,0,1,55.12,59v-.11h0v-.14l1.5-19.19-.22-.08c-.11,1.08-.21,2.17-.33,3.57-.15,1.77-.41,4.67-.67,7.56l-.24,2.72a31,31,0,0,1-.74,5.21,15.51,15.51,0,0,1-2.28,4.89,15.28,15.28,0,0,1-2.8,3.17,10,10,0,0,1-3.27,1.87,9.33,9.33,0,0,1-1.94.48,4.19,4.19,0,0,1-1.79-.14,7.39,7.39,0,0,1-3.1.47,8.26,8.26,0,0,1-3.5-1,6.52,6.52,0,0,1-1.86-1.44,5.83,5.83,0,0,1-1.16-2.09,7.22,7.22,0,0,1-.33-2c0-.17,0-.34,0-.5"/><path class="cls-4" d="M22.11,56.47a1,1,0,0,1,.07.66l-.22,0a11.84,11.84,0,0,0-2.21.21c-.76.31-.54,1.14,0,1.52a2.88,2.88,0,0,0,2,.25L24.11,59a20.59,20.59,0,0,1,4.71.1l2.23.17c.7,0,1.87.22,2.12-.34a1,1,0,0,0-.7-1.31,13.22,13.22,0,0,0-2-.13c-.63,0-.63-.14-.62-.81L27.67,22.58l-7.57.16c-.21.43-5.21,23.84-5.55,25.45a39,39,0,0,1-1,4.17c-.3.87-1.16,3.2-1.93,3.14-.19-2.35-.5-3.26-1.69-4.63-2.44-2.82-7.11-2.11-7,2.4A6.24,6.24,0,0,0,9.86,59c5-.83,6-7.87,7.08-12.06h4.63Zm16.18,3.74c-2.07.26-3.47,1.35-2.74,3.66a3,3,0,0,0,1.59,1.83c1.44.77,4,1,5.23-.4a2.8,2.8,0,0,0,.34-2.74A2.94,2.94,0,0,0,41,60.86a6.24,6.24,0,0,0-2.7-.65m125.86-29c-2,.49-2.56,3-1.66,5.18.56,1.35,2.43,3.45,4.51,3.09a2.33,2.33,0,0,0,1.87-1.93c.92-3.27-2.05-7-4.72-6.34m-3.9,26.33a20.45,20.45,0,0,0-.06-3.58,7.87,7.87,0,0,0-1.06-2.74,5.75,5.75,0,0,0-1.91-1.89,3,3,0,0,0-3.05.21c-1.5,1.41-1.4,7.93,4.35,9.36a8.08,8.08,0,0,0,9-11.77,17.46,17.46,0,0,0-1.56-2.24l-2.44-3.34c-.73-1.11-2.35-3.18-3.22-4.38a3.82,3.82,0,0,1-.57-1.34c-.29-1.65,1.43-1.27,2-1.85.84-.91-2-2.23-4.73.37-6.07,5.85,1.16,12.58,4.91,17.22A9.52,9.52,0,0,1,163.3,54c.35.88.72,2.4,0,3a4.57,4.57,0,0,1-3,.56M58.07,59c0,.39-.06.22.09.3A18.92,18.92,0,0,1,63.49,59c.5,0,1.22.24,1.64.24.1-2,1.27-21.63,1.48-22,.64.15,1,1.51,1.61,1.87a5.24,5.24,0,0,0,1.36.39c2,.26,3.26-3.07,3.49-5.47.2-2.21-.29-4.48-2.83-4-1.72.3-2.64,2.26-2.9,4.24l-.79-.08c-1.07-2.71-4.88-1.06-6.9-.24a12.39,12.39,0,0,0-2.48,1.09c-.75.95,0,2,1.07,1.53.54-.22,1.09-.5,1.64-.72Zm85-30.51L142.69,35c-1.13.11-2.45-.33-2.7.8-.28,1.31,1.57,1,2.5,1-.26,4.78-.78,10-1.15,14.91a35.83,35.83,0,0,0-.29,5.08c.22,1.54,1.32,2.24,3,2.28a7,7,0,0,0,4.18-1.2L150,57c.67-.34,1.39-.42,1.4-1.33s-1.07-.73-1.66-.38a16.53,16.53,0,0,1-1.75,1l1.45-19.58c.95,0,2.79.31,2.81-.81,0-1.32-1.51-1-2.65-1l.61-7.72a20,20,0,0,1-4.85.81,17,17,0,0,0-1.75-.14c-.55-.26-.6,0-.57.58M84,34.61c-.26,6-.88,12.71-1.29,18.83,0,.51-.07,2.76-.34,3a2.79,2.79,0,0,1-2.42.63l1.65-22.89a11.38,11.38,0,0,0-3.85,1.91,8.83,8.83,0,0,0-2.5,3.2A28.33,28.33,0,0,0,72.9,48.4c-.3,3.1.1,7.41,1.85,9.26,1.07,1.13,2,1.56,4.17,1.54A10,10,0,0,0,83.49,58,13.48,13.48,0,0,0,89,52.06c1.57-3.12,1.71-5.56,2.11-9.35a14,14,0,0,0-.21-5.2c-.94-3.58-3-4.89-6.63-4.76-1.93.07-2.55,1.44-1.56,1.79a5.44,5.44,0,0,0,1.35.07M101.62,59c.37,0,.17,0,.35-.05-.06-.54.21-4.59.25-5.48a41.84,41.84,0,0,1,.47-5.42c.44-2.41,2-6.55,3.59-8,0,1.45-.24,3-.35,4.51l-.72,9c-.08,1-.46,3.6-.15,4.42.46,1.23,1.71,1.61,3.3,1.47a7.3,7.3,0,0,0,3.56-1.31l1.54-.9c.56-.33,1.13-.5,1.09-1.31-.09-1.72-2.31.06-3,.29,0-1.66.26-3.49.4-5.17s.27-3.45.41-5.17.27-3.45.4-5.17a45,45,0,0,0,.35-5.23A2.46,2.46,0,0,0,110,33.17c-2.37.41-4.19,4-5.19,6-.3.6-1.81,3.36-1.89,3.74,0,.11,0,.1-.08.16s-.24.11,0-.24c0-.81.59-5.18.72-6.36.3-2.57-.73-3.83-3.32-3.54a15.31,15.31,0,0,0-5.06,2,2.57,2.57,0,0,0-1,.73.88.88,0,0,0,0,1.25c.52.46,2-.49,2.59-.68L94.75,59.18c1,0,2.22-.27,3.33-.32,1.27,0,2.4.17,3.54.17m17.62-23.11.24-.09-.14.61a18.78,18.78,0,0,1-.14,2.45c-.41,5.6-1,11.64-1.26,17.13-.25,4.42,3.63,3.8,5.4,1.46.19-.25.38-.47.58-.73s.38-.44.57-.7c.38-.52.74-1,1.11-1.56l2.19-3.07.06.29c0,1-.51,4.85-.35,5.59.44,2,2,2.35,4.24,1.88,1.18-.25,4.93-1.66,5.43-2.63.2-.41.14-1-.27-1.14-.62-.23-2,.5-2.57.67.15-3.8.52-7.74.77-11.56.1-1.46.83-10.92.73-11.51a20.19,20.19,0,0,1-5.06.81,11.09,11.09,0,0,0-1.85-.12c-.33,6.87-.15,14.17-3.69,19.09-.06-.75.8-11.56.93-13.27a25.67,25.67,0,0,0,.19-4.41,2.62,2.62,0,0,0-2.5-2.25,9,9,0,0,0-3.89.93c-1,.37-2.71.84-3.16,1.56a.76.76,0,0,0,.66,1.2,11,11,0,0,0,1.78-.63m-72.08-2.7c-.75,8,.11,13-4.25,18.74l1.38-16.77.72-.25c.22,0,.5-.11.72-.18.73-.21,1.68-2.35-2.62-1-5.53,1.69-7.29,9.71-7.73,15.09-.19,2.31-.35,4.65-.56,7-.23,2.57,1.62,3.85,4,3s4-3.94,5.43-6l1.56-2.23-1.1,13.3a10.84,10.84,0,0,1-1.16.71c-.42.29-.8.47-.67,1.23.53.49,1.57.09,2.23-.13a9.63,9.63,0,0,0,4.55-3.89c2-2.93,2.18-4.63,2.54-8.72.3-3.42.61-6.84.9-10.26s.69-6.92.91-10.34c-.45.09-1,.33-1.51.46s-1.11.24-1.66.32c-2.66.38-2.19,0-3.72,0m-26.8-1.8.15-.33,0,.35.95,13.63H17.41Z"/></g></g></svg>